<?xml version="1.0" standalone="no"?>
<!DOCTYPE svg PUBLIC "-//W3C//DTD SVG 1.1//EN" "http://www.w3.org/Graphics/SVG/1.1/DTD/svg11.dtd" >
<svg xmlns="http://www.w3.org/2000/svg">
<metadata>Generated by IcoMoon</metadata>
<defs>
<font id="icomoon" horiz-adv-x="1024">
<font-face units-per-em="1024" ascent="960" descent="-64" />
<missing-glyph horiz-adv-x="1024" />
<glyph unicode="&#x20;" horiz-adv-x="512" d="" />
<glyph unicode="&#xe900;" glyph-name="add" d="M138.971 521.143h746.057q36.571 0 36.571-36.571v0q0-36.571-36.571-36.571h-746.057q-36.571 0-36.571 36.571v0q0 36.571 36.571 36.571zM477.842 113.957v746.057q0 36.571 36.571 36.571v0q36.571 0 36.571-36.571v-746.057q0-36.571-36.571-36.571v0q-36.571 0-36.571 36.571z" />
<glyph unicode="&#xe901;" glyph-name="airplane" d="M768 104.533c-4.267 0-10.667 2.133-14.933 4.267 0 0-81.067 44.8-183.467 100.267-14.933 8.533-21.333 27.733-12.8 42.667s27.733 21.333 42.667 12.8c57.6-32 108.8-59.733 142.933-78.933l74.667 584.533-582.4-305.067c23.467-12.8 51.2-27.733 85.333-46.933 0 0 2.133 0 2.133-2.133 2.133-2.133 4.267-2.133 6.4-4.267l12.8-6.4c14.933-8.533 19.2-29.867 8.533-42.667-8.533-14.933-29.867-19.2-42.667-8.533-2.133 2.133-4.267 2.133-6.4 4.267-4.267 2.133-8.533 4.267-10.667 6.4-78.933 42.667-134.4 74.667-134.4 74.667-10.667 6.4-17.067 17.067-17.067 27.733s6.4 21.333 17.067 27.733l686.933 358.4c10.667 6.4 21.333 4.267 32-2.133 8.533-6.4 14.933-17.067 12.8-29.867l-87.467-689.067c-2.133-10.667-8.533-19.2-17.067-23.467-4.267-2.133-8.533-4.267-14.933-4.267zM394.667 38.4c-17.067 0-32 14.933-32 32v202.667c0 6.4 2.133 14.933 6.4 19.2l420.267 507.733c10.667 12.8 29.867 14.933 44.8 4.267 12.8-10.667 14.933-29.867 4.267-44.8l-411.733-497.067v-192c0-17.067-14.933-32-32-32z" />
<glyph unicode="&#xe902;" glyph-name="annex" d="M587.2 644.9c12.2 9.8 29.3 9.8 42.7-1.2 12.2-12.2 12.2-29.3 0-41.5l-261.3-260.1c-17.1-15.9-17.1-44 0-62.3 15.9-17.1 44-17.1 62.3 0l306.5 307.7c42.7 42.7 42.7 113.5 0 156.3-42.7 42.7-113.5 42.7-156.3 0l-328.4-328.4c-69.6-69.6-69.6-180.7 0-250.3s180.7-69.6 250.3 0l283.3 280.8c4.9 2.4 7.3 6.1 9.8 9.8 12.2 12.2 29.3 12.2 41.5 0s12.2-29.3 0-41.5l-2.4-2.4c-2.4-1.2-4.9-4.9-7.3-7.3l-283.4-280.9c-91.6-91.6-241.8-91.6-333.3 0-91.6 91.6-91.6 241.8 0 333.3l328.4 329.7c65.9 65.9 173.4 65.9 240.5 0 65.9-65.9 65.9-173.4 0-240.5l-307.7-307.8c-40.3-40.3-106.2-40.3-145.3 0-40.3 40.3-40.3 106.2 0 145.3l260.1 261.3z" />
<glyph unicode="&#xe903;" glyph-name="bigger" d="M727.936 186.752c-66.428-56.456-153.185-90.791-247.961-90.791-212.077 0-384 171.923-384 384s171.923 384 384 384c212.077 0 384-171.923 384-384 0-94.776-34.336-181.533-91.246-248.51l0.455 0.549 145.472-145.344c5.798-5.798 9.384-13.808 9.384-22.656 0-17.695-14.345-32.040-32.040-32.040-8.848 0-16.858 3.586-22.656 9.384v0l-145.408 145.408zM480 160c176.731 0 320 143.269 320 320s-143.269 320-320 320v0c-176.731 0-320-143.269-320-320s143.269-320 320-320v0zM448 512v96c0 17.673 14.327 32 32 32s32-14.327 32-32v0-96h96c17.673 0 32-14.327 32-32s-14.327-32-32-32v0h-96v-96c0-17.673-14.327-32-32-32s-32 14.327-32 32v0 96h-96c-17.673 0-32 14.327-32 32s14.327 32 32 32v0h96z" />
<glyph unicode="&#xe904;" glyph-name="blueAdd" d="M212.992 433.664v0zM69.632 880.128v-866.304h868.352v866.304h-868.352zM720.896 398.848h-167.936v-167.936c0-28.672-22.528-51.2-49.152-51.2-28.672 0-51.2 22.528-51.2 51.2v167.936h-165.888c-28.672 0-51.2 22.528-51.2 51.2s22.528 49.152 51.2 49.152h165.888v167.936c0 28.672 22.528 51.2 51.2 51.2 26.624 0 49.152-22.528 49.152-51.2v-167.936h167.936c28.672 0 51.2-20.48 51.2-49.152-2.048-30.72-24.576-51.2-51.2-51.2z" />
<glyph unicode="&#xe905;" glyph-name="calendar" d="M663.849 357.518h97.555v-97.56h-97.555v97.56zM460.874 357.518h97.555v-97.56h-97.555v97.56zM460.874 499.585h97.555v-97.555h-97.555v97.555zM663.849 499.585h97.555v-97.555h-97.555v97.555zM874.988 824.298h-73.002v52.698c0 15.71-12.78 28.49-28.49 28.49-15.695 0-28.464-12.78-28.464-28.49v-52.698h-470.736v52.698c0 15.71-12.78 28.49-28.489 28.49-15.695 0-28.464-12.78-28.464-28.49v-52.698h-72.996c-49.281 0-89.375-40.091-89.375-89.368v-649.459c0-49.277 40.093-89.368 89.375-89.368h730.641c49.277 0 89.368 40.091 89.368 89.368v649.459c0 49.278-40.091 89.368-89.368 89.368zM245.806 686.162c15.709 0 28.489 12.78 28.489 28.49v52.698h470.736v-52.698c0-15.71 12.77-28.49 28.464-28.49 15.71 0 28.49 12.78 28.49 28.49v52.698h73.002c17.859 0 32.389-14.543 32.389-32.42v-113.577h-795.45v113.577c0 17.876 14.543 32.42 32.42 32.42h72.996v-52.698c0-15.71 12.77-28.49 28.464-28.49zM907.377 85.47c0-17.859-14.53-32.389-32.389-32.389h-730.641c-17.876 0-32.42 14.53-32.42 32.389v478.904h795.45v-478.904zM460.874 215.427h97.555v-97.561h-97.555v97.561zM257.923 357.518h97.555v-97.56h-97.555v97.56zM257.923 215.427h97.555v-97.561h-97.555v97.561zM257.923 499.585h97.555v-97.555h-97.555v97.555z" />
<glyph unicode="&#xe906;" glyph-name="cancelCheck" d="M831.992 927.568h-639.912c-88.44-0.072-160.080-71.232-160.032-158.952v-635.64c0-87.72 71.616-158.88 160.032-159h192.888c21.833 0.053 39.538 17.649 39.768 39.434v0.022c-0.23 21.79-17.908 39.376-39.712 39.456h-192.944c-0.029 0-0.064 0-0.098 0-22.032 0-41.991 8.872-56.5 23.238l0.007-0.006c-14.456 14.318-23.411 34.168-23.424 56.109v635.763c0 43.872 35.832 79.44 80.040 79.488h639.912c44.16 0 80.040-35.568 80.040-79.464v-239.88c0.724-21.077 17.984-37.887 39.17-37.887 0.387 0 0.774 0.006 1.158 0.017l-0.057-0.001c21.824 0.013 39.525 17.647 39.648 39.444v238.908c0.024 87.696-71.592 158.832-159.984 158.952zM273.584 678.040h382.536c18.6 0 33.84 16.032 33.84 35.64 0 19.68-15.24 35.688-33.84 35.688h-382.536c-18.6 0-33.72-16.032-33.72-35.688 0-19.608 15.12-35.64 33.72-35.64zM556.184 590.968h-282.6c-18.6 0-33.72-16.032-33.72-35.688 0-19.608 15.12-35.64 33.72-35.64h282.528c18.624 0 33.792 16.032 33.792 35.64 0 19.68-15.168 35.688-33.72 35.688zM456.128 432.568h-182.544c-18.6 0-33.72-16.008-33.72-35.688 0-19.56 15.12-35.688 33.72-35.688h182.544c18.552 0 33.792 16.128 33.792 35.688 0.048 19.608-15.192 35.688-33.792 35.688zM970.112 330.088c-14.016 13.968-36.12 14.712-49.32 1.656l-127.488-126.528-127.512 126.528c-13.176 12.936-35.328 12.312-49.32-1.656-14.016-13.896-14.64-35.808-1.536-48.864l127.464-126.504-127.416-126.384c-13.152-13.056-12.48-35.112 1.488-49.008 13.92-13.92 36.216-14.568 49.32-1.512l127.44 126.528 127.56-126.528c13.2-13.056 35.232-12.336 49.32 1.512 14.064 13.848 14.736 35.832 1.464 49.008l-127.416 126.384 127.536 126.528c13.272 13.176 12.48 34.968-1.584 48.864z" />
<glyph unicode="&#xe907;" glyph-name="change" d="M864 656.64c-17.673 0-32-14.327-32-32v0-496.64h-640v640h494.368c17.673 0 32 14.327 32 32s-14.327 32-32 32v0h-526.368c-17.673 0-32-14.327-32-32v0-704c0-17.673 14.327-32 32-32v0h704c17.673 0 32 14.327 32 32v0 528.64c0 17.673-14.327 32-32 32v0zM399.008 380.288c-5.79-5.79-9.371-13.789-9.371-22.624 0-17.67 14.325-31.995 31.995-31.995 8.835 0 16.834 3.581 22.624 9.371l313.824 313.824c5.79 5.79 9.371 13.789 9.371 22.624 0 17.67-14.325 31.995-31.995 31.995-8.835 0-16.834-3.581-22.624-9.371l-313.824-313.824zM818.752 722.752c0.010 0 0.021 0 0.033 0 8.826 0 16.814 3.584 22.59 9.375l45.249 45.249c5.79 5.79 9.371 13.789 9.371 22.624 0 17.67-14.325 31.995-31.995 31.995-8.835 0-16.834-3.581-22.624-9.371l-45.248-45.248c-5.816-5.79-9.415-13.803-9.415-22.656 0-17.655 14.313-31.968 31.968-31.968 0.025 0 0.050 0 0.074 0h-0.004z" />
<glyph unicode="&#xe908;" glyph-name="check" d="M513 899.3l-375.8-143.9v-391.4c0-232.5 376.8-364.4 376.8-364.4s375.8 132 375.8 364.5v391.3l-376.8 143.9zM711.3 432.6h-143.9v-143.9h-108.2v143.9h-143v110.5h143.9v140.6h107.2v-140.6h143.9v-110.5z" />
<glyph unicode="&#xe909;" glyph-name="class" horiz-adv-x="1025" d="M513.010 886.857c10.942-0.024 21.313-2.447 30.621-6.771l-0.451 0.188 404.48-192.548c1.605-0.536 2.996-1.217 4.276-2.055l-0.070 0.043c-1.005-0.748-2.147-1.42-3.358-1.965l-0.116-0.046-405.212-192.549c-8.863-4.113-19.237-6.513-30.171-6.513s-21.309 2.399-30.625 6.701l0.453-0.188-404.479 192.549c-1.605 0.536-2.996 1.217-4.276 2.054l0.070-0.043c1.006 0.749 2.147 1.421 3.359 1.966l0.116 0.046 405.21 192.548c8.858 4.136 19.229 6.559 30.164 6.583h0.008zM513.009 960c-0.104 0-0.227 0-0.35 0-22.256 0-43.33-5.059-62.136-14.089l0.863 0.373-404.48-192.365c-27.574-10.893-46.726-37.313-46.726-68.206s19.152-57.313 46.231-68.033l0.495-0.173 404.48-192.365c18.055-8.653 39.249-13.707 61.623-13.707s43.568 5.055 62.501 14.084l-0.878-0.377 404.48 192.365c27.574 10.893 46.726 37.313 46.726 68.206s-19.152 57.313-46.231 68.033l-0.495 0.173-404.48 192.365c-17.943 8.657-39.017 13.715-61.273 13.715-0.123 0-0.246 0-0.369 0h0.019zM513.010 186.514c-0.269-0.001-0.588-0.002-0.906-0.002-28.511 0-55.444 6.755-79.286 18.751l1.015-0.463-412.525 204.983c-12.673 5.928-21.296 18.571-21.296 33.228 0 20.198 16.373 36.571 36.571 36.571 6.325 0 12.275-1.606 17.464-4.432l-0.192 0.096 412.526-204.8c13.606-6.838 29.649-10.842 46.628-10.842s33.023 4.004 47.239 11.119l-0.611-0.277 412.525 204.8c4.484 2.113 9.739 3.346 15.282 3.346 20.198 0 36.571-16.373 36.571-36.571 0-13.875-7.727-25.945-19.112-32.143l-0.192-0.096-412.526-204.8c-22.922-11.647-49.983-18.47-78.638-18.47-0.19 0-0.379 0-0.569 0.001h0.030zM513.010-64c-0.106 0-0.231 0-0.357 0-28.697 0-55.817 6.752-79.857 18.755l1.037-0.469-412.525 204.984c-12.673 5.928-21.296 18.571-21.296 33.228 0 20.198 16.373 36.571 36.571 36.571 6.325 0 12.275-1.606 17.464-4.432l-0.192 0.096 412.526-204.8c13.606-6.838 29.649-10.842 46.628-10.842s33.023 4.004 47.239 11.119l-0.611-0.277 412.525 204.8c4.484 2.113 9.739 3.346 15.282 3.346 20.198 0 36.571-16.373 36.571-36.571 0-13.875-7.727-25.945-19.112-32.143l-0.192-0.096-412.526-204.983c-23.004-11.535-50.125-18.287-78.823-18.287-0.124 0-0.248 0-0.372 0h0.019z" />
<glyph unicode="&#xe90a;" glyph-name="close" horiz-adv-x="1117" d="M1023.988 773.811h-465.447v93.094c0 51.415-41.68 93.094-93.094 93.094v0h-372.352c-51.415 0-93.094-41.68-93.094-93.094v0-837.811c0-51.415 41.68-93.094 93.094-93.094v0h930.893c51.415 0 93.094 41.68 93.094 93.094v0 651.635c-0.007 51.409-41.684 93.082-93.094 93.082v0z" />
<glyph unicode="&#xe90b;" glyph-name="copy" horiz-adv-x="1035" d="M641.635 189.852c-101.259 0-202.521 0-303.78 0.003-43.698 0-77.72 33.996-77.725 77.83-0.028 201.308-0.028 402.617 0 603.927 0.005 44.047 34.079 77.957 78.168 77.957 202.173 0 404.352 0 606.529 0 44.355 0 78.238-33.866 78.252-78.396 0.035-148.598 0.010-297.194 0.010-445.795 0-52.537 0.040-105.075-0.010-157.61-0.042-38.575-26.295-70.087-64.197-77.006-4.228-0.771-8.625-0.867-12.94-0.869-101.434-0.047-202.873-0.040-304.308-0.040v0zM641.204 252.277c91.376 0 182.757-0.030 274.137 0.057 7.26 0.009 14.561 0.471 21.761 1.357 12.963 1.593 19.395 7.492 21.35 20.302 1.327 8.691 1.923 17.58 1.925 26.38 0.106 179.639 0.094 359.276 0.036 538.915-0.002 7.265-0.46 14.547-1.096 21.787-1.374 15.587-7.141 22.041-22.453 24.581-6.464 1.075-13.103 1.492-19.665 1.497-183.801 0.076-367.599 0.083-551.399-0.017-7.24-0.007-14.549-0.759-21.702-1.921-11.677-1.9-17.603-7.607-19.307-19.282-1.372-9.395-2.093-18.968-2.098-28.46-0.118-178.597-0.099-357.195-0.043-535.792 0.002-7.267 0.417-14.549 1.030-21.793 1.506-17.785 7.77-24.4 25.246-26.488 6.348-0.757 12.782-1.068 19.176-1.074 91.034-0.073 182.068-0.050 273.101-0.050v0zM399.947-51.524c-101.253 0-202.505-0.005-303.759 0-43.052 0.002-77.408 34.029-77.42 77.065-0.064 201.81-0.064 403.626 0 605.44 0.012 43.094 34.352 77.208 77.329 77.208 24.793 0.002 49.585 0.010 74.378-0.002 18.346-0.010 31.752-13.22 31.719-31.224-0.031-17.681-13.484-30.88-31.43-31.071-20.267-0.217-40.535-0.615-60.802-0.942-0.518-0.009-1.042-0.035-1.556-0.083-17.333-1.61-24.365-8.587-26.059-26.398-0.704-7.409-1.068-14.875-1.070-22.315-0.057-178.578-0.073-357.159 0.036-535.736 0.005-9.15 0.702-18.362 1.96-27.423 1.807-12.989 8.423-19.128 21.569-20.705 6.865-0.823 13.812-1.336 20.721-1.338 183.087-0.068 366.176-0.066 549.262-0.009 6.224 0.003 12.478 0.406 18.655 1.124 16.538 1.913 23.49 8.7 24.395 25.47 0.975 18.155 0.994 36.366 1.173 54.555 0.186 19.442 13.934 33.788 32.212 33.242 18.631-0.552 31.55-16.329 30.833-35.855-0.782-21.299-0.254-42.644-0.391-63.967-0.207-32.968-20.62-62.254-51.521-72.721-7.885-2.672-16.581-4.119-24.913-4.143-101.773-0.273-203.548-0.174-305.32-0.174v0zM602.761 533.607c-2.809 0-4.859 0-6.912 0-47.334 0-94.668-0.035-142.002 0.019-17.799 0.019-33.282 13.456-35.424 30.508-2.394 19.055 8.488 35.761 26.532 40.34 3.474 0.881 7.192 1.075 10.798 1.084 46.643 0.069 93.28 0.043 139.924 0.043 2.199 0 4.398 0 7.082 0 0 2.799 0 4.854 0 6.907 0 46.816-0.005 93.629 0.002 140.444 0.003 21.522 15.349 37.43 36.077 37.432 20.691 0.002 36.108-15.949 36.119-37.455 0.023-46.815 0.010-93.629 0.010-140.442 0-2.057 0-4.112 0-6.886 2.696 0 4.899 0 7.103 0 47.332 0 94.668 0.056 142-0.033 17.726-0.033 32.624-12.959 35.157-30.114 2.663-18.002-7.722-34.99-24.814-40.1-3.754-1.12-7.817-1.664-11.745-1.673-46.988-0.111-93.977-0.073-140.963-0.073-2.038 0-4.081 0-6.738 0 0-2.522 0-4.541 0-6.565 0-47.159 0.090-94.319-0.056-141.481-0.049-15.454-7.124-27.19-21.317-33.437-13.847-6.092-27.237-4.117-38.805 5.925-8.135 7.063-12.030 16.328-12.030 27.164 0.002 47.332 0 94.666 0 142 0 1.883 0 3.771 0 6.391v0z" />
<glyph unicode="&#xe90c;" glyph-name="delete" d="M911.104 24.192c-8.32 0-16.64 3.2-22.976 9.536l-782.656 782.656c-5.866 5.874-9.494 13.986-9.494 22.944 0 17.933 14.537 32.47 32.47 32.47 8.974 0 17.098-3.641 22.976-9.526v0l782.656-782.656c5.785-5.876 9.357-13.945 9.357-22.849 0-17.906-14.447-32.437-32.32-32.575h-0.013zM128.448 24.192c-0.019 0-0.041 0-0.064 0-17.921 0-32.448 14.527-32.448 32.448 0 8.976 3.645 17.101 9.535 22.975l782.657 782.657c5.686 4.961 13.173 7.986 21.367 7.986 17.991 0 32.576-14.585 32.576-32.576 0-8.162-3.002-15.623-7.961-21.339l0.034 0.040-782.72-782.656c-5.875-5.891-14-9.536-22.976-9.536v0z" />
<glyph unicode="&#xe90d;" glyph-name="doc" d="M702.682 702.563c-35.28 0-63.88 28.6-63.88 63.88v0 191.641l255.521-255.521zM894.323 638.682v-574.922c0-70.56-57.2-127.76-127.76-127.76h-511.042c-70.56 0-127.76 57.2-127.76 127.76v0 766.563c0 70.56 57.2 127.76 127.76 127.76v0h319.401v-191.641c0-70.56 57.2-127.76 127.76-127.76v0zM255.521 127.641h383.281v63.88h-383.281zM255.521 319.281h511.042v63.88h-511.042zM255.521 574.802v-63.88h511.042v63.88z" />
<glyph unicode="&#xe90e;" glyph-name="down" d="M946.7 786.9l-415.2-415.2c-5.3-5.3-13.4-8.9-20.5-8.9s-15.1 3.6-20.5 8.9l-415.2 415.2c-5.3 5.3-8.9 13.4-8.9 20.5s3.6 15.1 8.9 20.5l44.5 44.6c5.3 5.3 12.5 8.9 20.5 8.9 7.1 0 15.1-3.6 20.5-8.9l350.2-350.2 350.2 350.1c5.3 5.3 13.4 8.9 20.5 8.9s15.2-3.6 20.5-8.9l44.5-44.6c5.3-5.3 8.9-13.4 8.9-20.5 0-7-3.5-15.1-8.9-20.4zM946.7 444.8l-415.2-415.3c-5.3-5.3-13.4-8.9-20.5-8.9s-15.1 3.6-20.5 8.9l-415.2 415.3c-5.3 5.3-8.9 13.4-8.9 20.5s3.6 15.1 8.9 20.5l44.5 44.6c5.3 5.3 12.5 8.9 20.5 8.9 7.1 0 15.1-3.6 20.5-8.9l350.2-350.3 350.2 350.2c5.3 5.3 13.4 8.9 20.5 8.9s15.2-3.6 20.5-8.9l44.5-44.6c5.3-5.3 8.9-13.4 8.9-20.5s-3.5-15.1-8.9-20.4z" />
<glyph unicode="&#xe90f;" glyph-name="draw" d="M953.87 582.413c-3.615 3.69-8.051 5.59-13.184 5.648-12.528 0.141-26.537-10.954-36.075-20.277l-341.28-331.534c-12.513-12.241-58.579-87.060-60.533-90.24l-7.461-12.133 12.15 7.435c3.221 1.97 79.048 48.427 91.535 60.636l341.28 331.534c15.168 14.832 26.7 35.475 13.567 48.931zM740.87 479.298c0-27.64-22.433-50.070-50.070-50.070-27.643 0-50.075 22.43-50.075 50.070s22.432 50.072 50.075 50.072c27.637 0 50.070-22.433 50.070-50.072zM215.127 304.057c-27.64 0-50.070 22.426-50.070 50.066s22.43 50.073 50.070 50.073c27.639 0 50.071-22.433 50.071-50.073s-22.432-50.066-50.070-50.066zM290.234 479.298c0 27.64 22.433 50.072 50.069 50.072 27.64 0 50.072-22.433 50.072-50.072s-22.431-50.070-50.072-50.070c-27.637 0-50.070 22.407-50.070 50.070zM465.481 529.37c0 27.639 22.43 50.069 50.070 50.069s50.073-22.43 50.073-50.069c0-27.64-22.433-50.072-50.074-50.072s-50.069 22.408-50.069 50.072zM852.743 359.563c-23.013-149.128-158.903-300.266-352.327-300.266-36.82 0-76.081 7.283-107.714 19.98-33.644 13.506-48.903 29.385-51.963 39.737-1.596 5.403-3.097 11.309-4.686 17.56-4.655 18.321-9.932 39.087-20.273 56.32-18.394 30.65-44.862 37.084-63.828 37.084-7.175 0-14.815-0.914-22.7-2.714-12.88-2.94-25.39-4.43-37.182-4.43-25.15 0-67.536 6.674-68.839 51.364-6.597 228.189 180.929 352.126 369.696 373.728 13.351 1.526 27.633 2.299 42.449 2.299 53.181 0 111.664-10.011 152.628-26.127 9.257-3.642 14.39-6.023 39.246-18.204 25.68-12.585 46.398-30.465 62.965-47.694l30.19 53.133c-18.046 17.030-40.377 34.443-67.175 47.576-24.917 12.21-31.928 15.531-43.613 20.127-47.39 18.645-114.156 30.226-174.241 30.226-17.045 0-33.58-0.901-49.155-2.68-115.638-13.234-220.925-59.122-296.463-129.215-85.6-79.428-129.010-184.853-125.54-304.883 1.006-34.508 15.134-63.085 40.855-82.646 22.404-17.037 52.487-26.042 86.997-26.042 16.204 0 33.133 1.987 50.322 5.91 3.586 0.818 6.802 1.234 9.559 1.234 11.481 0 17.010-10.055 26.881-48.906 1.656-6.516 3.369-13.256 5.287-19.752 9.445-31.945 39.385-58.847 86.59-77.795 38.36-15.398 85.636-24.23 129.706-24.23 54.162 0 106.59 10.147 155.828 30.156 46.291 18.814 88.597 45.814 125.742 80.252 35.782 33.176 65.34 71.869 87.851 115.007 22.55 43.21 36.927 88.763 42.738 135.416 0.262 2.12 0.508 4.326 0.732 6.554l0.149 1.471v0.059c0.222 2.338 0.405 4.7 0.572 7.072l-61.284-16.681z" />
<glyph unicode="&#xe910;" glyph-name="exit" d="M939.227 470.967c6.697-4.984 10.988-12.877 10.988-21.772 0-7.247-2.849-13.829-7.487-18.687l0.010 0.010c-3.511 0-3.511-3.365-3.511-3.365l-175.323-171.886c-5.934-6.274-14.317-10.179-23.612-10.179-0.313 0-0.626 0.004-0.937 0.013l0.046-0.001c-0.296-0.010-0.644-0.015-0.993-0.015-9.287 0-17.661 3.907-23.568 10.166l-0.015 0.016c-6.459 5.834-10.501 14.239-10.501 23.589s4.042 17.755 10.473 23.564l0.028 0.025 115.712 111.177h-336.603c-21.065 0-35.109 13.531-35.109 33.792 0 20.187 14.043 33.646 35.109 33.646h336.603l-115.712 111.323c-6.483 5.836-10.542 14.257-10.542 23.625s4.058 17.789 10.513 23.6l0.029 0.025c6.292 6.253 14.965 10.118 24.539 10.118s18.247-3.865 24.541-10.12l-0.002 0.002 175.323-168.594zM844.581 211.383c20.992 0 35.109-13.458 35.109-33.646v-67.438c0-57.344-45.641-101.157-105.253-101.157h-596.114c-59.611 0-105.179 43.886-105.179 101.157v674.158c0 57.271 45.568 101.083 105.179 101.083h596.114c59.611 0 105.179-43.813 105.179-101.083v-67.438c0-20.261-14.043-33.719-35.109-33.719-20.992 0-35.035 13.458-35.035 33.646v67.511c0 20.187-13.97 33.646-35.035 33.646h-596.114c-20.992 0-35.109-13.458-35.109-33.646v-674.231c0-20.261 14.117-33.719 35.109-33.719h596.114c21.065 0 35.109 13.458 35.109 33.646v67.438c0 20.261 13.97 33.719 35.035 33.719z" />
<glyph unicode="&#xe911;" glyph-name="export" d="M256 520.32c8.145 0.169 15.529 3.296 21.15 8.347l-0.030-0.027 204.16 207.36v-490.24c0-16.613 13.467-30.080 30.080-30.080s30.080 13.467 30.080 30.080v0 490.24l207.36-206.72c5.53-5.393 13.096-8.719 21.44-8.719s15.91 3.326 21.446 8.725l-0.006-0.006c5.024 5.591 8.151 12.975 8.319 21.086l0.001 0.034c-0.002 8.375-3.159 16.013-8.347 21.79l0.027-0.030-256 256c-5.593 5.249-13.14 8.474-21.44 8.474s-15.847-3.225-21.457-8.489l0.017 0.016-256-259.2c-5.393-5.53-8.719-13.096-8.719-21.44s3.326-15.91 8.725-21.446l-0.006 0.006c5.177-3.609 11.599-5.767 18.526-5.767 0.237 0 0.473 0.003 0.709 0.008l-0.035-0.001zM869.76 300.16c-16.613 0-30.080-13.467-30.080-30.080v0-132.48c0.007-0.191 0.010-0.415 0.010-0.64 0-10.957-8.883-19.84-19.84-19.84-0.004 0-0.007 0-0.011 0h-616.319c-0.003 0-0.007 0-0.010 0-10.957 0-19.84 8.883-19.84 19.84 0 0.225 0.004 0.449 0.011 0.673l-0.001-0.033v132.48c-0.35 16.47-13.61 29.73-30.047 30.079l-0.033 0.001c-0.002 0-0.004 0-0.007 0-16.741 0-30.355-13.391-30.713-30.047l-0.001-0.033v-147.84c0-35.346 28.654-64 64-64v0h648.96c35.346 0 64 28.654 64 64v0 147.84c-0.674 16.334-13.746 29.405-30.017 30.078l-0.063 0.002z" />
<glyph unicode="&#xe912;" glyph-name="eye" d="M905.459 461.521l7.541-14.031-7.541-14.010c-66.17-122.244-222.295-246.48-393.459-246.48-171.185 0-327.312 124.234-393.079 246.479l-7.921 14.010 7.921 14.032c65.767 122.651 221.894 246.479 393.079 246.479 171.164 0 327.29-123.827 393.459-246.479zM512 244.693c141.043 0 274.591 102.212 335.614 202.796-61.024 101.014-194.57 202.797-335.614 202.797-141.066 0-274.613-101.783-335.635-202.797 61.021-100.584 194.57-202.796 335.635-202.796zM511.5 319c-73.178 0-132.5 59.77-132.5 133.5s59.322 133.5 132.5 133.5 132.5-59.77 132.5-133.5c0-73.73-59.322-133.5-132.5-133.5zM512.076 370.078c44.861 0 81.228 36.642 81.228 81.842s-36.367 81.84-81.228 81.84-81.228-36.64-81.228-81.84 36.367-81.842 81.228-81.842z" />
<glyph unicode="&#xe913;" glyph-name="finished" d="M2.048 483.328v342.528c0 124.928 68.608 134.144 135.68 134.144h545.28c104.448 0 137.728-35.328 137.728-135.68v-69.12c0-53.76-69.12-48.64-69.12 0v69.12c0 50.176-16.896 69.12-69.12 69.12h-544.768c-55.808 0-69.12-7.68-69.12-69.12v-683.52c0-37.376 20.48-69.12 69.12-69.12h135.68c40.96 0 44.544-69.12 0-69.12h-161.792c-48.64 0-89.6 29.696-104.448 74.24-3.584 12.8-5.632 26.112-5.632 38.912l0.512 367.616zM681.472-61.952c-187.904 0-340.48 152.576-340.48 340.48s152.576 340.48 340.48 340.48 342.528-154.112 342.528-342.528-152.576-338.432-342.528-338.432zM683.52 550.4c-148.992 0-271.872-122.88-271.872-271.872 0-151.040 120.832-271.872 271.872-273.92 151.040 0 273.92 120.832 273.92 269.824-2.56 153.088-123.392 275.968-273.92 275.968zM614.4 755.2c53.76 0 46.592-69.12 0-69.12h-409.6c-50.176 0-48.64 69.12 0 69.12h409.6zM273.92 550.4c53.76 0 46.592-69.12 0-69.12h-69.12c-50.176 0-48.64 69.12 0 69.12h69.12zM850.944 404.992c-14.848 14.848-40.96 14.848-55.808 0l-171.52-171.52-52.224 52.224c-14.848 14.848-40.96 14.848-55.808 0s-14.848-40.96 0-55.808l79.872-79.872c7.68-7.68 18.432-11.264 28.16-11.264 9.216 0 20.48 3.584 28.16 11.264l3.584 3.584c2.048 0 2.048 2.048 3.584 3.584l192 192c14.848 14.848 14.848 40.96 0 55.808z" />
<glyph unicode="&#xe914;" glyph-name="guidebook" d="M130.619 28.686h95.346v834.271h-95.346v-834.271zM750.364 862.957v-324.603l-95.347 46.343-95.346-46.342v324.602h-286.036v-834.271h619.745v834.271h-143.017z" />
<glyph unicode="&#xe915;" glyph-name="help" d="M512 931.556c-267.060 0-483.556-216.495-483.556-483.556s216.495-483.556 483.556-483.556c267.060 0 483.556 216.495 483.556 483.556v0c-0.324 266.93-216.625 483.232-483.524 483.556h-0.031zM512 21.333c-235.641 0-426.667 191.025-426.667 426.667s191.025 426.667 426.667 426.667c235.641 0 426.667-191.025 426.667-426.667v0c0-235.641-191.025-426.667-426.667-426.667v0zM506.88 297.244c-0.669 0.034-1.453 0.054-2.241 0.054-12.904 0-24.584-5.239-33.029-13.706l-0.001-0.001c-10.019-8.332-16.383-20.763-16.498-34.683v-0.019c-0.003-0.185-0.004-0.403-0.004-0.622 0-13.435 5.68-25.544 14.769-34.056l0.026-0.024c8.718-9.124 20.983-14.796 34.572-14.796 0.246 0 0.491 0.002 0.737 0.006h-0.037c0.137-0.001 0.298-0.002 0.46-0.002 13.459 0 25.705 5.193 34.843 13.685l-0.032-0.029c9.471 9.032 15.36 21.748 15.36 35.84v0c0.006 0.273 0.009 0.595 0.009 0.918 0 13.237-5.447 25.202-14.222 33.776l-0.009 0.009c-8.863 8.454-20.892 13.657-34.137 13.657-0.199 0-0.397-0.001-0.596-0.004h0.030zM519.396 696.604c-3.309 0.245-7.168 0.384-11.060 0.384-42.746 0-81.56-16.838-110.171-44.243l0.057 0.054c-26.892-28.538-43.419-67.103-43.419-109.529 0-2.695 0.067-5.374 0.199-8.037l-0.015 0.375h73.956c-0.119 1.947-0.187 4.224-0.187 6.516 0 23.428 7.081 45.202 19.219 63.299l-0.259-0.41c13.757 17.823 35.126 29.19 59.15 29.19 1.807 0 3.598-0.064 5.373-0.191l-0.238 0.014c1.041 0.049 2.26 0.076 3.486 0.076 20.579 0 39.335-7.805 53.47-20.616l-0.067 0.060c12.452-13.603 20.081-31.801 20.081-51.78 0-1.797-0.062-3.58-0.183-5.347l0.013 0.239c-0.433-19.057-7.69-36.339-19.413-49.575l-11.307-13.003c-28.869-23.686-53.389-51.284-73.123-82.23l-0.833-1.397c-8.653-17.792-13.711-38.705-13.711-60.799 0-1.426 0.021-2.846 0.063-4.262l-0.005 0.208v-11.378h73.387v11.378c-0.016 0.642-0.025 1.399-0.025 2.157 0 15.87 4.011 30.803 11.075 43.841l-0.241-0.487c7.494 13.979 17.001 25.845 28.297 35.714l0.147 0.126c20.565 17.129 39.118 34.421 56.673 52.68l0.216 0.226c16.699 22.003 26.751 49.848 26.751 80.041 0 0.661-0.005 1.32-0.014 1.978l0.001-0.1c0.098 1.846 0.154 4.008 0.154 6.182 0 36.568-15.827 69.439-41.004 92.138l-0.11 0.098c-26.689 22.729-61.567 36.555-99.674 36.555-2.359 0-4.706-0.053-7.039-0.158l0.331 0.012z" />
<glyph unicode="&#xe916;" glyph-name="history" d="M857.5 563.9c-7.3 0-14.7 2.6-20.5 8l-242.7 239.7c-12.5 11.3-13.4 30.5-2 43.1s30.5 13.4 43.1 2l242.6-239.7c12.5-11.3 13.4-30.5 2-43.1-6-6.7-14.3-10-22.5-10zM837.2 579.9h-162.7c-39.3 0-71.1 32-71.1 71.1v162.8c0 16.9 13.7 30.5 30.5 30.5 16.9 0 30.5-13.7 30.5-30.5v-162.6c0-5.7 4.7-10.2 10.2-10.2h162.6c16.9 0 30.5-13.7 30.5-30.5-0.1-17-13.7-30.6-30.5-30.6zM694.8 214.2h-365.8c-16.9 0-30.5 13.7-30.5 30.5s13.7 30.5 30.5 30.5h365.8c16.9 0 30.5-13.7 30.5-30.5s-13.6-30.5-30.5-30.5zM694.8 397h-365.8c-16.9 0-30.5 13.7-30.5 30.5s13.7 30.5 30.5 30.5h365.8c16.9 0 30.5-13.7 30.5-30.5s-13.6-30.5-30.5-30.5zM816.7 31.4h-609.6c-39.3 0-71.1 31.9-71.1 71.1v690.9c0 39.3 31.9 71.1 71.1 71.1h407.6c16.9 0 30.5-13.7 30.5-30.5s-13.7-30.5-30.5-30.5h-407.6c-5.7 0-10.2-4.5-10.2-10.2v-690.9c0-5.7 4.5-10.2 10.2-10.2h609.6c5.7 0 10.2 4.5 10.2 10.2v488.1c0 16.9 13.7 30.5 30.5 30.5s30.5-13.7 30.5-30.5v-488c0-39.3-31.9-71.1-71.2-71.1z" />
<glyph unicode="&#xe917;" glyph-name="historyInfo" d="M922.9 620.8c-22.5 53.2-54.7 101-95.7 142s-88.9 73.2-142.1 95.7c-55.1 23.4-113.6 35.2-173.9 35.2-106.3 0-207.3-37.4-287.2-104.5v72.4c0 17.7-14.3 32-32 32s-32-14.3-32-32v-143.1c-2.9-11.6 0.8-24.4 10.7-32.5 8-6.6 18.3-8.7 27.7-6.5 1.9-0.3 3.8-0.5 5.7-0.5h156.2c17.7 0 32 14.3 32 32s-14.3 32-32 32h-91.8c68 55.7 153.2 86.7 242.7 86.7 211.1 0 382.8-171.8 382.8-382.8s-171.7-382.8-382.8-382.8-382.8 171.7-382.8 382.8c0 17.7-14.3 32-32 32s-32-14.3-32-32c0-60.3 11.8-118.8 35.1-173.9 22.5-53.2 54.7-101 95.7-142s88.8-73.2 142-95.7c55.1-23.3 113.6-35.1 173.9-35.1s118.8 11.8 173.9 35.1c53.2 22.5 101 54.7 142 95.7s73.2 88.8 95.7 142c23.5 55 35.3 113.6 35.3 173.9s-11.8 118.8-35.1 173.9zM475.6 657c-17.7 0-32-14.3-32-32v-256c0-17.7 14.3-32 32-32h246.2c17.7 0 32 14.3 32 32s-14.3 32-32 32h-214.2v224c0 17.7-14.3 32-32 32z" />
<glyph unicode="&#xe918;" glyph-name="index" d="M264.107 99.883h476.8v268.203c0 16.46 13.343 29.803 29.803 29.803s29.803-13.343 29.803-29.803v0-297.984c0-0.013 0-0.028 0-0.043 0-16.448-13.334-29.781-29.781-29.781h-536.405c0 0 0 0 0 0-16.448 0-29.781 13.334-29.781 29.781 0 0.015 0 0.030 0 0.045v-0.002 297.984c0 16.448 13.334 29.781 29.781 29.781s29.781-13.334 29.781-29.781v0-268.203zM502.528 794.624l-358.187-358.144c-5.402-5.412-12.87-8.761-21.12-8.761-16.479 0-29.838 13.359-29.838 29.838 0 8.229 3.331 15.68 8.719 21.078v0l379.307 379.307c5.395 5.426 12.866 8.784 21.12 8.784s15.725-3.358 21.119-8.783l379.265-379.308c5.405-5.405 8.748-12.872 8.748-21.12 0-16.496-13.372-29.868-29.868-29.868-8.248 0-15.715 3.343-21.12 8.748l-358.144 358.272z" />
<glyph unicode="&#xe919;" glyph-name="item" d="M415.68 703.36h512c17.6 0 32 14.4 32 32s-14.4 32-32 32h-512c-17.6 0-32-14.4-32-32s14.4-32 32-32zM415.68 447.68h512c17.6 0 32 14.4 32 32s-14.4 32-32 32h-512c-17.6 0-32-14.4-32-32s14.4-32 32-32zM927.872 255.36h-512c-17.6 0-32-14.4-32-32s14.4-32 32-32h512c17.6 0 32 14.4 32 32s-14.4 32-32 32zM265.536 823.296l-105.408-105.408-41.408 41.408c-5.805 5.758-13.799 9.317-22.624 9.317s-16.819-3.558-22.626-9.319l0.002 0.002c-5.758-5.805-9.317-13.799-9.317-22.624s3.558-16.819 9.319-22.626l63.806-63.806 0.128-0.256c5.778-5.774 13.759-9.344 22.573-9.344 0.052 0 0.104 0 0.155 0h-0.008c0.048 0 0.106 0 0.163 0 8.789 0 16.744 3.572 22.492 9.343l0.001 0.001 0.128 0.256 127.872 127.872c5.758 5.805 9.317 13.799 9.317 22.624s-3.558 16.819-9.319 22.626l0.002-0.002c-5.794 5.754-13.778 9.311-22.592 9.311-8.846 0-16.855-3.582-22.656-9.375v0zM265.536 566.016l-105.408-105.408-41.408 41.408c-5.805 5.758-13.799 9.317-22.624 9.317s-16.819-3.558-22.626-9.319l0.002 0.002c-5.758-5.805-9.317-13.799-9.317-22.624s3.558-16.819 9.319-22.626l63.87-63.87 0.128-0.256c5.762-5.735 13.708-9.28 22.482-9.28 0.061 0 0.122 0 0.183 0.001h-0.009c0.048 0 0.106 0 0.163 0 8.789 0 16.744 3.572 22.492 9.343l0.001 0.001 0.128 0.256 127.872 127.872c5.758 5.805 9.317 13.799 9.317 22.624s-3.558 16.819-9.319 22.626l0.002-0.002c-5.808 5.724-13.787 9.259-22.592 9.259-8.837 0-16.842-3.56-22.659-9.325l0.002 0.002zM265.536 310.016l-105.408-105.408-41.408 41.408c-5.805 5.758-13.799 9.317-22.624 9.317s-16.819-3.558-22.626-9.319l0.002 0.002c-5.758-5.805-9.317-13.799-9.317-22.624s3.558-16.819 9.319-22.626l63.87-63.87 0.128-0.256c5.794-5.808 13.805-9.401 22.656-9.401s16.862 3.593 22.655 9.401l0.001 0.001 0.128 0.256 127.872 127.872c5.758 5.805 9.317 13.799 9.317 22.624s-3.558 16.819-9.319 22.626l0.002-0.002c-5.805 5.758-13.799 9.317-22.624 9.317s-16.819-3.558-22.626-9.319l0.002 0.002z" />
<glyph unicode="&#xe91a;" glyph-name="law" d="M204.8 888.32h614.4c33.93 0 61.44-27.51 61.44-61.44v-757.76c0-33.93-27.51-61.44-61.44-61.44h-614.4c-33.93 0-61.44 27.51-61.44 61.44v757.76c0 33.93 27.51 61.44 61.44 61.44zM327.68 309.76c-11.311 0-20.48-9.169-20.48-20.48s9.169-20.48 20.48-20.48v0h368.64c11.311 0 20.48 9.169 20.48 20.48s-9.169 20.48-20.48 20.48v0h-368.64zM327.68 197.12c-11.311 0-20.48-9.169-20.48-20.48s9.169-20.48 20.48-20.48v0h368.64c11.311 0 20.48 9.169 20.48 20.48s-9.169 20.48-20.48 20.48v0h-368.64zM507.238 478.771c1.381 0.74 3.020 1.174 4.762 1.174s3.381-0.435 4.817-1.201l-0.055 0.027 76.186-40.049c1.382-0.741 3.023-1.177 4.766-1.177 5.655 0 10.24 4.585 10.24 10.24 0 0.613-0.054 1.213-0.157 1.797l0.009-0.062-14.551 84.828c-0.094 0.52-0.147 1.119-0.147 1.731 0 2.873 1.183 5.47 3.089 7.33l0.002 0.002 61.635 60.078c1.908 1.862 3.091 4.458 3.091 7.331 0 5.135-3.779 9.386-8.708 10.126l-0.056 0.007-85.176 12.38c-3.402 0.507-6.219 2.627-7.684 5.542l-0.027 0.059-38.093 77.179c-1.711 3.406-5.177 5.703-9.18 5.703s-7.469-2.297-9.153-5.644l-0.027-0.059-38.093-77.179c-1.492-2.975-4.309-5.094-7.655-5.594l-0.056-0.007-85.176-12.38c-4.985-0.747-8.764-4.998-8.764-10.133 0-2.873 1.183-5.47 3.089-7.329l0.002-0.002 61.635-60.078c1.908-1.862 3.091-4.459 3.091-7.332 0-0.611-0.054-1.21-0.156-1.792l0.009 0.062-14.551-84.828c-0.094-0.522-0.148-1.122-0.148-1.735 0-5.655 4.585-10.24 10.24-10.24 1.743 0 3.384 0.436 4.821 1.204l-0.055-0.027 76.186 40.054z" />
<glyph unicode="&#xe91b;" glyph-name="light" d="M366.043 206.491c-84.094 49.148-143.437 142.546-143.437 245.783 0 157.371 133.554 285.137 296.801 285.137 163.203 0 296.756-127.811 296.756-285.137 0-103.237-59.342-196.635-143.437-245.783-4.941-24.618-14.824-49.192-34.635-68.825h-237.414c-19.766 19.632-29.693 44.206-34.635 68.825zM732.069 422.803c0 122.869-93.933 216.268-212.662 221.209-19.81 0-29.693-9.838-29.693-29.515 0-4.897 9.883-14.735 29.693-14.735 89.036 0 168.144-73.722 168.144-176.959 0-4.897 9.927-14.78 29.693-14.78 4.941 4.897 14.824 9.838 14.824 14.78zM390.795 68.841c0 19.632 14.824 29.471 29.649 29.471h197.882c14.824 0 29.693-9.794 29.693-29.471s-14.869-24.618-29.693-24.618h-197.882c-4.897 0-14.824 4.897-19.766 9.838-4.941 4.897-9.883 9.838-9.883 14.78zM633.15 4.914c-19.766-44.251-64.284-68.825-113.743-68.825s-89.036 24.574-113.788 68.825h227.531zM513.041 798.578c19.632 0 37.083 17.451 37.083 37.083v87.255c-0.6 20.235-16.849 36.484-37.027 37.082l-0.056 0.001c-20.216-0.624-36.44-16.864-37.038-37.027l-0.001-0.056v-87.255c0-19.632 17.451-37.083 37.039-37.083zM268.905 744.044c6.544-10.907 19.588-15.27 30.495-15.27 8.112 0.145 15.631 2.564 21.981 6.645l-0.167-0.101c17.451 13.088 19.632 34.902 8.726 52.353l-50.172 69.804c-13.088 17.451-34.902 19.632-52.353 8.726-17.451-13.088-19.588-34.902-8.726-52.353l50.216-69.804zM177.287 619.705l-82.892 26.177c-3.507 1.17-7.545 1.844-11.74 1.844-16.688 0-30.881-10.676-36.124-25.571l-0.082-0.268c-1.178-3.518-1.857-7.57-1.857-11.78 0-16.692 10.683-30.89 25.584-36.128l0.268-0.082 82.803-26.177c4.407 0 8.77-2.181 13.133-2.181 16.326 0.34 30.048 11.116 34.784 25.912l0.073 0.264c1.181 3.522 1.862 7.579 1.862 11.794 0 16.677-10.664 30.864-25.544 36.114l-0.268 0.082zM953.5 366.666l-82.803 26.177c-3.518 1.178-7.57 1.857-11.78 1.857-16.692 0-30.89-10.683-36.128-25.584l-0.082-0.268c-1.181-3.522-1.862-7.579-1.862-11.794 0-16.677 10.664-30.864 25.544-36.114l0.268-0.082 82.892-26.177c4.363-2.181 8.726-2.181 10.907-2.181 16.326 0.34 30.048 11.116 34.784 25.912l0.073 0.264c1.855 4.166 2.935 9.026 2.935 14.139 0 15.77-10.276 29.141-24.497 33.78l-0.251 0.071zM155.473 392.842l-82.892-26.177c-15.149-5.332-25.812-19.519-25.812-36.197 0-4.215 0.681-8.271 1.939-12.064l-0.078 0.27c4.363-15.27 19.588-26.177 34.857-26.177 4.363 0 8.726 0 10.907 2.181l82.892 26.177c15.149 5.332 25.812 19.519 25.812 36.197 0 4.215-0.681 8.271-1.939 12.064l0.078-0.27c-6.544 19.632-26.132 30.539-45.764 23.995zM859.746 545.539c4.363 0 8.726 0 10.907 2.181l82.848 26.177c15.191 5.309 25.893 19.517 25.893 36.224 0 4.205-0.678 8.252-1.93 12.037l0.078-0.27c-5.321 15.17-19.518 25.852-36.21 25.852-4.21 0-8.261-0.68-12.050-1.935l0.27 0.078-82.892-26.177c-15.149-5.332-25.812-19.519-25.812-36.197 0-4.215 0.681-8.271 1.939-12.064l-0.078 0.27c6.544-15.27 21.814-26.177 37.039-26.177zM748.54 857.475l-50.127-69.804c-13.088-17.451-8.726-39.265 8.726-52.353 6.183-3.98 13.701-6.399 21.775-6.544l0.038-0.001c10.862 0 23.951 4.363 30.495 15.27l50.172 69.804c13.088 17.451 8.726 39.265-8.726 52.353s-41.402 8.726-52.353-8.726z" />
<glyph unicode="&#xe91c;" glyph-name="noData" horiz-adv-x="1170" d="M1018.368 603.575c12.361-22.821-14.702 40.448-62.61 40.448l-741.23-0.293c-27.648 0-46.811-13.678-62.903-38.839-16.091-25.234-151.625-234.277-151.625-278.528v-284.087c0.166-44.309 36.124-80.165 80.457-80.165 0.077 0 0.155 0 0.232 0h1008.628c0.065 0 0.143 0 0.22 0 44.333 0 80.291 35.856 80.457 80.149v284.103c0 44.251-151.625 277.211-151.625 277.211s-21.723 40.448 0 0zM753.591 348.306c-0.564 0.030-1.223 0.047-1.887 0.047-17.374 0-31.996-11.785-36.306-27.798l-0.060-0.263c0-2.048 0.293-4.096 0.293-6.144 0-72.45-58.732-131.182-131.182-131.182s-131.182 58.732-131.182 131.182v0c0 2.633 0.293 5.193 0.439 7.826-9.362 26.185-37.303 26.331-37.303 26.331h-346.478l117.321 216.064s21.504 38.766 51.785 37.595h698.807c24.357 0 28.526-8.777 46.080-37.595l119.223-216.21h-349.477zM332.434 757.614l-89.161 84.626c-4.574 4.358-7.419 10.496-7.419 17.298 0 13.186 10.69 23.876 23.876 23.876 6.384 0 12.183-2.506 16.467-6.587l-0.010 0.009 89.088-84.626c4.581-4.355 7.43-10.494 7.43-17.298 0-13.172-10.678-23.851-23.851-23.851-6.368 0-12.153 2.496-16.431 6.562l0.010-0.010zM578.048 794.99c-4.428 4.215-7.23 10.104-7.387 16.648l-0.001 0.029-3.218 122.88c-0.005 0.185-0.008 0.403-0.008 0.622 0 13.194 10.696 23.889 23.889 23.889 12.975 0 23.534-10.344 23.88-23.235l0.001-0.032 3.145-122.88c0.005-0.18 0.008-0.391 0.008-0.603 0-13.169-10.676-23.845-23.845-23.845-6.354 0-12.128 2.486-16.402 6.538l0.011-0.010zM809.253 762.002c-4.582 4.354-7.433 10.493-7.433 17.298 0 6.369 2.497 12.154 6.565 16.431l-0.009-0.010 84.626 89.234c4.358 4.574 10.496 7.419 17.298 7.419 13.186 0 23.876-10.69 23.876-23.876 0-6.384-2.506-12.183-6.587-16.467l0.009 0.010-84.626-89.161c-4.354-4.582-10.493-7.433-17.298-7.433-6.369 0-12.154 2.497-16.431 6.565l0.010-0.009z" />
<glyph unicode="&#xe91d;" glyph-name="nopass" d="M514.381 926.66c-261.953 0-476.279-214.326-476.279-476.279s214.326-476.279 476.279-476.279 476.279 214.326 476.279 476.279c-4.763 261.953-214.326 476.279-476.279 476.279zM514.381 188.428c-33.34 0-57.153 23.814-57.153 57.153s23.814 57.153 57.153 57.153 57.153-23.814 57.153-57.153-23.814-57.153-57.153-57.153zM571.535 517.060c-9.526-76.205-23.814-142.884-38.102-161.935-4.763-4.763-9.526-9.526-14.288-9.526-9.526 0-14.288 4.763-14.288 14.288-14.288 23.814-28.577 85.73-38.102 161.935-4.763 52.391-9.526 100.019-4.763 133.358v9.526c0 33.34 28.577 61.916 61.916 61.916 23.814 0 42.865-9.526 52.391-28.577 4.763 0 4.763-4.763 4.763-9.526 4.763-4.763 4.763-14.288 4.763-19.051v-4.763c-4.763-42.865-9.526-90.493-14.288-147.647z" />
<glyph unicode="&#xe91e;" glyph-name="open" horiz-adv-x="1109" d="M988.16 9.899c0-37.675-31.104-68.139-69.333-68.139h-866.219l121.301 562.304c0 37.632 30.891 68.139 69.12 68.139h797.099c0.153 0.001 0.333 0.002 0.514 0.002 37.744 0 68.378-30.441 68.691-68.111v-0.030l-121.173-494.165zM191.147 623.36h779.648v66.944c0 37.632-31.104 68.139-69.291 68.139h-415.787v61.781c0 37.589-31.019 68.139-69.248 68.139h-346.581c-38.229 0-69.248-30.549-69.248-68.139v-810.325l121.173 545.28c0 37.632 31.061 68.181 69.333 68.181z" />
<glyph unicode="&#xe91f;" glyph-name="opinions" d="M781.312 500.582c-11.901 0.116-21.505 9.79-21.505 21.708 0 0.054 0 0.109 0.001 0.163v-0.008 280.576c-0.055 5.947-4.818 10.763-10.739 10.905h-482.829c-5.934-0.142-10.697-4.959-10.752-10.9v-280.581c0-0.046 0.001-0.101 0.001-0.155 0-11.9-9.574-21.563-21.44-21.707h-0.014c-11.879 0.144-21.453 9.808-21.453 21.707 0 0.055 0 0.109 0.001 0.163v-0.008 280.576c0 30.157 24.064 54.579 53.658 54.579h482.97c29.594 0 53.606-24.422 53.606-54.579v-280.576c0-0.046 0.001-0.1 0.001-0.155 0-11.918-9.603-21.592-21.494-21.708h-0.011zM893.44 38.4h-763.034c-29.669 0.289-53.608 24.407-53.608 54.116 0 0.163 0.001 0.326 0.002 0.488v-0.025 445.286c0 26.112 18.022 47.923 42.035 53.248 0.918 0.607 1.977 1.189 3.083 1.684l0.143 0.057 103.526 44.749c2.465 1.083 5.338 1.713 8.358 1.713 8.865 0 16.462-5.429 19.648-13.143l0.052-0.141c1.088-2.513 1.721-5.438 1.721-8.512 0-8.909-5.316-16.575-12.949-20.002l-0.139-0.056-63.078-27.29 340.173-193.178 323.584 192.819-68.096 29.696c-7.744 3.493-13.038 11.146-13.038 20.036 0 3.121 0.653 6.090 1.829 8.777l-0.055-0.141c3.23 7.873 10.835 13.316 19.712 13.316 3.094 0 6.033-0.661 8.685-1.85l-0.135 0.054 107.213-46.746c0.666-0.307 1.331-0.512 1.946-0.973 26.112-3.686 46.234-26.522 46.234-54.016v-445.286c0.001-0.092 0.001-0.201 0.001-0.31 0-29.832-24.025-54.054-53.782-54.371h-0.030zM554.291 566.784h-214.579c-12.721 0.116-22.989 10.455-22.989 23.193 0 0.036 0 0.073 0 0.109v-0.006c0 12.902 10.291 23.398 22.989 23.398h214.579c12.698 0 22.989-10.496 22.989-23.398 0-0.046 0.001-0.1 0.001-0.154 0-12.738-10.268-23.077-22.978-23.193h-0.011zM669.747 688.128h-330.035c-12.721 0.116-22.989 10.455-22.989 23.193 0 0.054 0 0.109 0.001 0.163v-0.008c0 12.851 10.291 23.347 22.989 23.347h330.035c12.646 0 22.938-10.496 22.938-23.347 0-0.046 0.001-0.101 0.001-0.155 0-12.72-10.239-23.048-22.924-23.192h-0.014z" />
<glyph unicode="&#xe920;" glyph-name="pass" d="M825.051 627.931l-16.091 16.091c-8.777 8.777-23.406 8.777-32.183 0l-342.309-333.531-125.806 131.657c-4.389 4.389-14.629 0-23.406-8.777l-16.091-16.091c-8.777-8.777-13.166-20.48-8.777-23.406l166.766-175.543c4.389-4.389 14.629 0 23.406 8.777l16.091 16.091c2.926 2.926 4.389 5.851 7.314 8.777l351.086 343.771c8.777 8.777 8.777 23.406 0 32.183zM512-64c-282.331 0-512 229.669-512 512s229.669 512 512 512 512-229.669 512-512-229.669-512-512-512z" />
<glyph unicode="&#xe921;" glyph-name="play" d="M512 959.623c-282.561 0-511.623-229.062-511.623-511.623s229.062-511.623 511.623-511.623 511.623 229.063 511.623 511.624-229.062 511.622-511.623 511.622zM512 32.307c-229.582 0-415.694 186.113-415.694 415.694s186.112 415.695 415.694 415.695c229.581 0 415.695-186.113 415.695-415.694s-186.114-415.695-415.695-415.695zM372.489 668.075l366.749-223.238-366.749-223.238v446.477z" />
<glyph unicode="&#xe922;" glyph-name="preview" horiz-adv-x="1262" d="M330.794 179.403c-44.491 0-80.734 36.471-80.734 81.219v367.453c0 44.69 36.215 81.219 80.734 81.219h587.337c44.519 0 80.734-36.471 80.734-81.219v-367.453c0-44.69-36.157-81.219-80.734-81.219zM314.627 622.453v-349.988s0-15.824 6.792-23.23 20.476-6.293 20.476-6.293h563.152s15.011-0.828 22.83 7.134 6.706 22.060 6.706 22.060l-0.071 350.145s1.669 12.671-4.78 20.162-20.975 6.45-20.975 6.45h-565.049s-14.511 0.671-22.345-6.45-6.792-19.976-6.792-19.976zM110.125 595.885c0-22.374 11.857-38.897 34.245-38.897s33.047 16.495 33.047 38.897v175.351c0 9.489 1.898 16.124 7.577 21.717s11.658 6.763 21.275 6.763h178.504c22.302 0 38.455 12.485 38.455 33.218s-16.124 34.245-38.455 34.245h-193.915c-44.491 0.071-80.734-36.4-80.734-81.147zM110.125 294.81c0 22.374 11.857 38.897 34.245 38.897s33.047-16.495 33.047-38.897v-175.379c0-9.489 1.898-16.124 7.577-21.717s11.658-6.763 21.275-6.763h178.504c22.302 0 38.455-12.485 38.455-33.218s-16.124-34.245-38.455-34.245h-193.915c-44.491 0-80.734 36.429-80.734 81.176v190.148zM1150.758 595.885c0-22.374-11.857-38.897-34.245-38.897s-33.047 16.495-33.047 38.897v175.351c0 9.489-1.898 16.124-7.577 21.717s-11.658 6.763-21.275 6.763h-178.504c-22.302 0-38.455 12.485-38.455 33.218s16.124 34.245 38.455 34.245h193.929c44.491 0.071 80.734-36.4 80.734-81.147zM1150.758 294.81c0 22.374-11.857 38.897-34.245 38.897s-32.975-16.452-32.975-38.897v-175.379c0-9.489-1.898-16.124-7.577-21.717s-11.658-6.763-21.275-6.763h-178.576c-22.302 0-38.455-12.485-38.455-33.218s16.124-34.245 38.455-34.245h193.929c44.491 0 80.734 36.429 80.734 81.176v190.148z" />
<glyph unicode="&#xe923;" glyph-name="refresh" d="M131.789 511.063c-3.133-10.23-9.062-13.363-15.411-15.206-13.942-4.070-29.798-0.906-38.149 7.101-6.221 5.97-8.033 15.401-5.335 23.762 30.147 147.154 129.234 278.682 274.289 338.601 221.117 91.32 472.653-11.561 573.829-234.711l20.444 76.657c2.083 5.529 6.253 9.864 11.525 12.118l0.138 0.052c2.267 0.962 4.904 1.522 7.671 1.522 3.235 0 6.291-0.764 8.998-2.122l-0.116 0.053c11.085-5.386 16.23-18.76 11.761-30.566l-40.387-128.010c-3.251-7.885-7.014-11.059-16.415-13.194-5.576-1.28-16.922-1.628-29.276 4.204l-121.754 43.264c-11.136 5.335-16.348 18.724-11.894 30.566 2.081 5.52 6.243 9.849 11.505 12.102l0.138 0.052c2.269 0.965 4.909 1.526 7.68 1.526 3.221 0 6.265-0.758 8.964-2.106l-0.116 0.053 70.897-19.103c-44.616 72.233-78.577 114.084-148.198 156.006-107.622 65.229-230.82 75.162-346.675 27.346-130.232-53.76-190.464-162.995-233.283-286.638l-0.829-3.328zM887.091 384.927c3.128 10.235 9.062 13.363 15.411 15.217 13.937 4.076 29.798 0.906 38.149-7.112 6.221-5.965 8.033-15.401 5.335-23.762-30.152-147.149-129.239-278.682-274.289-338.591-221.123-91.32-472.663 11.561-573.85 234.701l-20.444-76.652c-2.082-5.531-6.252-9.868-11.526-12.123l-0.138-0.052c-2.267-0.962-4.904-1.522-7.671-1.522-3.235 0-6.291 0.764-8.998 2.122l0.116-0.053c-11.080 5.402-16.215 18.775-11.73 30.577l40.381 128.010c3.256 7.885 7.020 11.059 16.41 13.21 5.576 1.265 16.932 1.623 29.286-4.209l121.754-43.315c11.11-5.371 16.271-18.749 11.807-30.566-2.082-5.52-6.244-9.848-11.505-12.102l-0.138-0.052c-2.273-0.968-4.916-1.53-7.691-1.53-3.217 0-6.257 0.756-8.953 2.1l0.117-0.053-70.902 19.118c44.616-72.192 78.577-114.094 148.204-156.022 107.633-65.229 230.83-75.162 346.685-27.331 130.237 53.76 190.474 162.995 233.293 286.623l0.886 3.369z" />
<glyph unicode="&#xe924;" glyph-name="save" d="M808.6 861.5h-591.8c-65.4 0-118.4-53-118.4-118.4v-591.8c0-65.4 53-118.4 118.4-118.4h591.8c65.4 0.1 118.4 53.1 118.4 118.5v591.7c0 65.4-53 118.4-118.4 118.4zM688.5 800.4v-232.9h-351.2v232.9h351.2zM867.9 151.2c0-32.6-26.4-59.1-59-59.1h-591.9c-15.8 0-30.8 6.1-42 17.3s-17.4 26-17.4 41.8v591.9c0.1 32.8 26.6 59.3 59.4 59.3h59.2v-236.9c0-32.6 26.3-59.1 59-59.1h355.2c32.7 0 59.2 26.4 59.2 59.1v236.9h59.1c32.7 0 59.2-26.6 59.2-59.3v-591.9zM572 623.7c-16.9 0-30.6 13.7-30.6 30.6v59.2c0 16.9 13.7 30.6 30.6 30.6s30.6-13.7 30.6-30.6v-59.2c0-16.9-13.7-30.6-30.6-30.6z" />
<glyph unicode="&#xe925;" glyph-name="search" d="M905.1 88.7l-163.6 163.7c55.2 67 88.3 152.8 88.3 246.3 0 214-173.5 387.5-387.5 387.5s-387.5-173.5-387.5-387.6 173.5-387.5 387.5-387.5c87.7 0 168.6 29.1 233.5 78.3l165-165c17.8-17.8 46.6-17.8 64.3 0 17.8 17.8 17.8 46.6 0 64.3zM127.9 498.6c0 173.6 140.8 314.4 314.4 314.4s314.4-140.8 314.4-314.4-140.8-314.4-314.4-314.4-314.4 140.8-314.4 314.4z" />
<glyph unicode="&#xe926;" glyph-name="searchAll" d="M988.028-63.863c-11.828 0.342-22.551 4.805-30.845 11.997l0.061-0.052-138.426 136.242c-43.114-33.962-98.207-54.471-158.091-54.471-0.334 0-0.667 0.001-1.001 0.002h0.052c-70.032 0-134.945 27.235-182.862 74.947-47.413 45.647-76.863 109.664-76.863 180.558 0 0.57 0.002 1.139 0.006 1.708v-0.087c0 68.189 27.303 132.897 76.858 182.316 46.371 46.312 110.4 74.953 181.119 74.953 0.637 0 1.273-0.002 1.909-0.007l-0.098 0.001c70.032 0 135.013-27.303 182.93-74.947 47.413-45.647 76.864-109.664 76.864-180.559 0-0.594-0.002-1.187-0.006-1.78v0.091c0-49.418-22.184-110.782-49.555-153.375l140.133-139.655c17.064-17.064 18.839-34.129 1.706-51.193 0 1.775-11.945-6.757-23.89-6.757zM658.071 101.388c49.555 0 97.404 18.771 133.307 54.538 33.769 33.315 54.686 79.582 54.686 130.735 0 0.736-0.004 1.472-0.013 2.206l0.001-0.112c0.001 0.265 0.002 0.579 0.002 0.893 0 103.028-83.52 186.548-186.548 186.548-0.505 0-1.009-0.002-1.513-0.006h0.077c-49.555 0-97.472-18.771-133.307-54.538-33.809-33.321-54.755-79.616-54.755-130.802 0-0.737 0.004-1.473 0.013-2.207l-0.001 0.112c0-49.35 18.839-97.062 54.743-132.829 34.559-33.291 81.464-53.976 133.197-54.537l0.11-0.001zM789.74 891.811h-721.278v-815.951h283.678v-68.189h-271.733c-0.061 0-0.133 0-0.205 0-44.233 0-80.096 35.839-80.134 80.063v792.201c0 44.299 35.903 80.066 80.339 80.066h699.094c44.367 0 80.339-35.767 80.339-80.066v-299.855h-68.394v311.801h-1.706zM319.718 225.753h-112.83c-25.665 0-46.142 15.358-46.142 34.129 0 18.703 20.477 33.992 46.142 33.992h112.83c25.597 0 46.142-15.29 46.142-34.061 0-18.703-20.477-34.129-46.142-34.129zM165.866 692.567c0 18.703 18.771 34.061 42.729 34.061h391.389c23.89 0 42.729-15.358 42.729-34.129 0-18.703-18.771-34.061-42.729-34.061h-391.389c-23.89 0-42.729 15.358-42.729 34.129zM167.572 469.365c0 18.771 18.771 34.129 42.729 34.129h153.853c23.89 0 42.729-15.358 42.729-34.129s-18.839-34.129-42.729-34.129h-153.853c-23.89 0-42.729 15.358-42.729 34.129z" />
<glyph unicode="&#xe927;" glyph-name="show" d="M871.93 246h-719.86c-16.016 0-29 12.984-29 29v0 458.35c0 15.464 12.536 28 28 28v0h721.86c15.464 0 28-12.536 28-28v0-458.35c0-16.016-12.984-29-29-29v0zM179.070 302h665.86v403.35h-665.86zM938.55 705.35h-853.1c-15.464 0-28 12.536-28 28s12.536 28 28 28v0h853.1c15.464 0 28-12.536 28-28s-12.536-28-28-28v0zM196.17 4c-15.456 0.010-27.983 12.542-27.983 28 0 6.624 2.3 12.711 6.145 17.505l-0.043-0.055 192.77 242c5.172 6.57 13.126 10.75 22.055 10.75 15.464 0 28-12.536 28-28 0-6.71-2.36-12.868-6.295-17.69l0.040 0.050-192.77-242c-5.174-6.459-13.061-10.56-21.905-10.56-0.005 0-0.010 0-0.015 0h0.001zM815.52 4c-0.014 0-0.030 0-0.046 0-8.83 0-16.703 4.097-21.821 10.495l-0.043 0.056-192.77 242c-3.895 4.772-6.255 10.93-6.255 17.64 0 15.464 12.536 28 28 28 8.929 0 16.883-4.18 22.010-10.69l0.045-0.060 192.77-242c3.798-4.738 6.095-10.821 6.095-17.44 0-15.459-12.527-27.991-27.984-28h-0.001zM676.060 705.35c-15.464 0-28 12.536-28 28v0 65.32c-0.023 20.608-16.722 37.307-37.328 37.33h-197.462c-20.608-0.023-37.307-16.722-37.33-37.328v-65.322c0-15.464-12.536-28-28-28s-28 12.536-28 28v0 65.32c0.063 51.52 41.81 93.267 93.324 93.33h197.466c51.52-0.063 93.267-41.81 93.33-93.324v-65.326c0-15.464-12.536-28-28-28v0z" />
<glyph unicode="&#xe928;" glyph-name="track" d="M512 38.4c-226.216 0-409.6 183.384-409.6 409.6s183.384 409.6 409.6 409.6v0c226.216 0 409.6-183.384 409.6-409.6s-183.384-409.6-409.6-409.6v0zM512 794.522c-191.379 0-346.522-155.143-346.522-346.522s155.143-346.522 346.522-346.522c191.379 0 346.522 155.143 346.522 346.522v0c-0.32 191.25-155.272 346.202-346.491 346.522h-0.031zM512 713.421c-17.334 0-31.386 14.052-31.386 31.386v0 54.63c0 17.419 14.121 31.539 31.539 31.539s31.539-14.121 31.539-31.539v0-54.63c0 0 0-0.001 0-0.002 0-17.334-14.052-31.386-31.386-31.386-0.108 0-0.216 0.001-0.324 0.002h0.016zM512 65.741c-17.334 0-31.386 14.052-31.386 31.386v0 54.579c0 17.419 14.121 31.539 31.539 31.539s31.539-14.121 31.539-31.539v0-54.579c0-0.016 0-0.034 0-0.053 0-17.334-14.052-31.386-31.386-31.386-0.108 0-0.216 0.001-0.324 0.002h0.016zM872.448 416.614h-74.803c-17.419 0-31.539 14.121-31.539 31.539s14.121 31.539 31.539 31.539h74.803c17.419 0 31.539-14.121 31.539-31.539s-14.121-31.539-31.539-31.539v0zM214.886 416.614h-54.579c-17.419 0-31.539 14.121-31.539 31.539s14.121 31.539 31.539 31.539h54.579c17.419 0 31.539-14.121 31.539-31.539s-14.121-31.539-31.539-31.539v0zM512 335.514c-62.125 0-112.486 50.362-112.486 112.486s50.362 112.486 112.486 112.486c62.125 0 112.486-50.362 112.486-112.486v0c-0.174-62.054-50.432-112.312-112.47-112.486h-0.017zM512 497.408c-27.287 0-49.408-22.121-49.408-49.408s22.121-49.408 49.408-49.408c27.287 0 49.408 22.121 49.408 49.408v0c-0.144 27.229-22.179 49.264-49.394 49.408h-0.014z" />
</font>
</defs>
</svg>
