<?xml version="1.0" standalone="no"?><!DOCTYPE svg PUBLIC "-//W3C//DTD SVG 1.1//EN" "http://www.w3.org/Graphics/SVG/1.1/DTD/svg11.dtd"><svg t="1577156120854" class="icon" viewBox="0 0 1024 1024" version="1.1" xmlns="http://www.w3.org/2000/svg" p-id="44002" xmlns:xlink="http://www.w3.org/1999/xlink" width="20" height="20"><defs><style type="text/css"></style></defs><path d="M794.464 677.130667a42.656 42.656 0 0 0-42.645333-42.656H261.322667a42.656 42.656 0 0 0-42.645334 42.656v85.301333a42.656 42.656 0 0 0 42.645334 42.656h490.496a42.656 42.656 0 0 0 42.645333-42.656v-85.301333z m138.624-245.248a42.656 42.656 0 0 0-42.656-42.645334H261.333333a42.656 42.656 0 0 0-42.645333 42.645334v85.301333a42.656 42.656 0 0 0 42.645333 42.656h629.12a42.656 42.656 0 0 0 42.645334-42.656V431.893333z m-309.226667-245.237334a42.656 42.656 0 0 0-42.645333-42.656h-319.893333a42.656 42.656 0 0 0-42.645334 42.656v85.301334a42.656 42.656 0 0 0 42.645334 42.645333h319.893333a42.656 42.656 0 0 0 42.645333-42.645333v-85.301334z" fill="#FBC984" p-id="44003"></path><path d="M117.333333 85.301333a32 32 0 0 1 32 32v757.333334h757.333334a32 32 0 1 1 0 64H117.333333a32 32 0 0 1-32-32v-789.333334a32 32 0 0 1 32-32z m634.421334 549.130667a42.656 42.656 0 0 1 42.602666 40.533333l0.053334 2.122667v85.301333a42.656 42.656 0 0 1-40.533334 42.602667l-2.122666 0.053333H431.872l0.010667-170.613333h319.872z m138.624-245.237333a42.656 42.656 0 0 1 42.592 40.522666l0.053333 2.133334v85.290666a42.656 42.656 0 0 1-40.522667 42.602667l-2.133333 0.053333h-287.893333l0.010666-170.613333h287.893334z m-309.226667-245.248a42.656 42.656 0 0 1 42.602667 40.533333l0.053333 2.122667v85.301333a42.656 42.656 0 0 1-40.533333 42.592l-2.122667 0.053333h-106.624V143.946667h106.624z" fill="#698FE1" p-id="44004"></path></svg>