<?xml version="1.0" standalone="no"?><!DOCTYPE svg PUBLIC "-//W3C//DTD SVG 1.1//EN" "http://www.w3.org/Graphics/SVG/1.1/DTD/svg11.dtd"><svg t="1576468646071" class="icon" viewBox="0 0 1024 1024" version="1.1" xmlns="http://www.w3.org/2000/svg" p-id="4592" xmlns:xlink="http://www.w3.org/1999/xlink" width="16" height="16"><defs><style type="text/css"></style></defs><path d="M727.936 773.248a384 384 0 1 1 45.248-45.248l145.472 145.344a32 32 0 0 1-45.312 45.312l-145.408-145.408zM480 800a320 320 0 1 0 0-640 320 320 0 0 0 0 640zM448 448V352a32 32 0 0 1 64 0V448h96a32 32 0 0 1 0 64H512v96a32 32 0 0 1-64 0V512H352a32 32 0 0 1 0-64H448z" p-id="4593" fill="#444444"></path></svg>