<?xml version="1.0" standalone="no"?><!DOCTYPE svg PUBLIC "-//W3C//DTD SVG 1.1//EN" "http://www.w3.org/Graphics/SVG/1.1/DTD/svg11.dtd"><svg t="1576482105879" class="icon" viewBox="0 0 1024 1024" version="1.1" xmlns="http://www.w3.org/2000/svg" p-id="122927" xmlns:xlink="http://www.w3.org/1999/xlink" width="16" height="16"><defs><style type="text/css"></style></defs><path d="M212.992 526.336h2.048-2.048zM69.632 79.872v866.304h868.352V79.872H69.632z m651.264 481.28H552.96v167.936c0 28.672-22.528 51.2-49.152 51.2-28.672 0-51.2-22.528-51.2-51.2V561.152H286.72c-28.672 0-51.2-22.528-51.2-51.2 0-28.672 22.528-49.152 51.2-49.152h165.888V292.864c0-28.672 22.528-51.2 51.2-51.2 26.624 0 49.152 22.528 49.152 51.2V460.8h167.936c28.672 0 51.2 20.48 51.2 49.152-2.048 30.72-24.576 51.2-51.2 51.2z" p-id="122928" fill="#6699ff"></path></svg>