<?xml version="1.0" standalone="no"?><!DOCTYPE svg PUBLIC "-//W3C//DTD SVG 1.1//EN" "http://www.w3.org/Graphics/SVG/1.1/DTD/svg11.dtd"><svg t="1576478112058" class="icon" viewBox="0 0 1024 1024" version="1.1" xmlns="http://www.w3.org/2000/svg" p-id="56772" xmlns:xlink="http://www.w3.org/1999/xlink" width="16" height="16"><defs><style type="text/css"></style></defs><path d="M663.84943 602.481757l97.55485 0 0 97.559966-97.55485 0 0-97.559966Z" p-id="56773" fill="#444444"></path><path d="M460.873576 602.481757l97.55485 0 0 97.559966-97.55485 0 0-97.559966Z" p-id="56774" fill="#444444"></path><path d="M460.873576 460.415135l97.55485 0 0 97.55485-97.55485 0 0-97.55485Z" p-id="56775" fill="#444444"></path><path d="M663.84943 460.415135l97.55485 0 0 97.55485-97.55485 0 0-97.55485Z" p-id="56776" fill="#444444"></path><path d="M874.988198 135.701658l-73.001641 0L801.986557 83.003436c0-15.709797-12.780071-28.489868-28.489868-28.489868-15.69547 0-28.464285 12.780071-28.464285 28.489868l0 52.698223L274.296203 135.701658 274.296203 83.003436c0-15.709797-12.780071-28.489868-28.488845-28.489868-15.69547 0-28.464285 12.780071-28.464285 28.489868l0 52.698223-72.995501 0c-49.281403 0-89.37454 40.09109-89.37454 89.3684l0 649.458675c0 49.27731 40.093137 89.3684 89.37454 89.3684l730.640626 0c49.27731 0 89.3684-40.09109 89.3684-89.3684L964.356598 225.070059C964.356598 175.791725 924.265508 135.701658 874.988198 135.701658zM245.806335 273.837762c15.708773 0 28.488845-12.780071 28.488845-28.489868l0-52.698223 470.736201 0 0 52.698223c0 15.709797 12.769838 28.489868 28.464285 28.489868 15.709797 0 28.489868-12.780071 28.489868-28.489868l0-52.698223 73.001641 0c17.85874 0 32.388664 14.543228 32.388664 32.420387l0 113.576755L111.926162 338.646813l0-113.576755c0-17.876136 14.543228-32.420387 32.420387-32.420387l72.995501 0 0 52.698223C217.34205 261.057691 230.111888 273.837762 245.806335 273.837762zM907.376862 874.529757c0 17.85874-14.529925 32.388664-32.388664 32.388664l-730.640626 0c-17.876136 0-32.420387-14.529925-32.420387-32.388664L111.927185 395.625526l795.449677 0L907.376862 874.529757z" p-id="56777" fill="#444444"></path><path d="M460.873576 744.57294l97.55485 0 0 97.56099-97.55485 0 0-97.56099Z" p-id="56778" fill="#444444"></path><path d="M257.923304 602.481757l97.55485 0 0 97.559966-97.55485 0 0-97.559966Z" p-id="56779" fill="#444444"></path><path d="M257.923304 744.57294l97.55485 0 0 97.56099-97.55485 0 0-97.56099Z" p-id="56780" fill="#444444"></path><path d="M257.923304 460.415135l97.55485 0 0 97.55485-97.55485 0 0-97.55485Z" p-id="56781" fill="#444444"></path></svg>