<?xml version="1.0" standalone="no"?><!DOCTYPE svg PUBLIC "-//W3C//DTD SVG 1.1//EN" "http://www.w3.org/Graphics/SVG/1.1/DTD/svg11.dtd"><svg t="1576481600911" class="icon" viewBox="0 0 1024 1024" version="1.1" xmlns="http://www.w3.org/2000/svg" p-id="117237" xmlns:xlink="http://www.w3.org/1999/xlink" width="16" height="16"><defs><style type="text/css"></style></defs><path d="M831.992 32.432H192.08C103.64 32.504 32 103.664 32.048 191.384v635.64c0 87.72 71.616 158.88 160.032 159h192.888a39.864 39.864 0 0 0 39.768-39.456 39.864 39.864 0 0 0-39.72-39.456H192.08a80.304 80.304 0 0 1-56.592-23.232 79.032 79.032 0 0 1-23.424-56.112v-635.76c0-43.872 35.832-79.44 80.04-79.488h639.912c44.16 0 80.04 35.568 80.04 79.464v239.88a39.192 39.192 0 0 0 40.272 37.872 39.672 39.672 0 0 0 39.648-39.456V191.384C992 103.688 920.384 32.552 831.992 32.432z" fill="#444444" p-id="117238"></path><path d="M273.584 281.96H656.12c18.6 0 33.84-16.032 33.84-35.64 0-19.68-15.24-35.688-33.84-35.688H273.584c-18.6 0-33.72 16.032-33.72 35.688 0 19.608 15.12 35.64 33.72 35.64z m282.6 87.072h-282.6c-18.6 0-33.72 16.032-33.72 35.688 0 19.608 15.12 35.64 33.72 35.64h282.528c18.624 0 33.792-16.032 33.792-35.64 0-19.68-15.168-35.688-33.72-35.688z m-100.056 158.4H273.584c-18.6 0-33.72 16.008-33.72 35.688 0 19.56 15.12 35.688 33.72 35.688h182.544c18.552 0 33.792-16.128 33.792-35.688 0.048-19.608-15.192-35.688-33.792-35.688z m513.984 102.48c-14.016-13.968-36.12-14.712-49.32-1.656L793.304 754.784 665.792 628.256c-13.176-12.936-35.328-12.312-49.32 1.656-14.016 13.896-14.64 35.808-1.536 48.864L742.4 805.28 614.984 931.664c-13.152 13.056-12.48 35.112 1.488 49.008 13.92 13.92 36.216 14.568 49.32 1.512l127.44-126.528 127.56 126.528c13.2 13.056 35.232 12.336 49.32-1.512 14.064-13.848 14.736-35.832 1.464-49.008L844.16 805.28l127.536-126.528c13.272-13.176 12.48-34.968-1.584-48.864z" fill="#444444" p-id="117239"></path></svg>