<?xml version="1.0" standalone="no"?><!DOCTYPE svg PUBLIC "-//W3C//DTD SVG 1.1//EN" "http://www.w3.org/Graphics/SVG/1.1/DTD/svg11.dtd"><svg t="1576476979496" class="icon" viewBox="0 0 1024 1024" version="1.1" xmlns="http://www.w3.org/2000/svg" p-id="9186" xmlns:xlink="http://www.w3.org/1999/xlink" width="16" height="16"><defs><style type="text/css"></style></defs><path d="M864 303.36a32 32 0 0 0-32 32V832H192V192h494.368a32 32 0 1 0 0-64H160a32 32 0 0 0-32 32v704a32 32 0 0 0 32 32h704a32 32 0 0 0 32-32V335.36a32 32 0 0 0-32-32z" p-id="9187" fill="#444444"></path><path d="M399.008 579.712a31.968 31.968 0 1 0 45.248 45.248l313.824-313.824a31.968 31.968 0 1 0-45.248-45.248l-313.824 313.824zM818.752 237.248a31.904 31.904 0 0 0 22.624-9.376l45.248-45.248a31.968 31.968 0 1 0-45.248-45.248l-45.248 45.248a31.968 31.968 0 0 0 22.624 54.624z" p-id="9188" fill="#444444"></path></svg>