<?xml version="1.0" standalone="no"?><!DOCTYPE svg PUBLIC "-//W3C//DTD SVG 1.1//EN" "http://www.w3.org/Graphics/SVG/1.1/DTD/svg11.dtd"><svg t="1576477976640" class="icon" viewBox="0 0 1025 1024" version="1.1" xmlns="http://www.w3.org/2000/svg" p-id="53670" xmlns:xlink="http://www.w3.org/1999/xlink" width="16.015625" height="16"><defs><style type="text/css"></style></defs><path d="M513.009609 73.143364a73.142944 73.142944 0 0 1 30.169977 6.582995l404.479692 192.547854a18.285986 18.285986 0 0 1 4.205997 2.011998 18.285986 18.285986 0 0 1-3.473997 2.010999L543.179586 468.846063a73.142944 73.142944 0 0 1-60.342954 0L78.35794 276.29721a18.285986 18.285986 0 0 1-4.205996-2.010999 18.285986 18.285986 0 0 1 3.474997-2.011998l405.209691-192.547854a73.142944 73.142944 0 0 1 30.171977-6.582995m0-73.142944a143.725891 143.725891 0 0 0-61.622953 13.71499L46.905964 206.080263a73.142944 73.142944 0 0 0 0 136.411896l404.479692 192.364854a145.370889 145.370889 0 0 0 123.245906 0l404.479692-192.364854a73.142944 73.142944 0 0 0 0-136.411896L574.631562 13.71541A143.725891 143.725891 0 0 0 513.008609 0.00042z" p-id="53671" fill="#444444"></path><path d="M513.009609 773.485831a176.639865 176.639865 0 0 1-79.177939-18.285986L21.306984 550.217001a36.570972 36.570972 0 1 1 32.547975-65.46295l412.525686 204.799844a105.690919 105.690919 0 0 0 93.256929 0l412.524685-204.799844a36.570972 36.570972 0 0 1 32.548976 65.46295l-412.525686 204.799844a176.639865 176.639865 0 0 1-79.17694 18.468986z" p-id="53672" fill="#444444"></path><path d="M513.009609 1023.99964a179.016864 179.016864 0 0 1-79.177939-18.285986L21.306984 800.72981a36.570972 36.570972 0 1 1 32.547975-65.46295l412.525686 204.799844a105.690919 105.690919 0 0 0 93.256929 0l412.524685-204.799844a36.570972 36.570972 0 0 1 32.548976 65.46295l-412.525686 204.982844A179.016864 179.016864 0 0 1 513.009609 1023.99964z" p-id="53673" fill="#444444"></path></svg>