<?xml version="1.0" standalone="no"?><!DOCTYPE svg PUBLIC "-//W3C//DTD SVG 1.1//EN" "http://www.w3.org/Graphics/SVG/1.1/DTD/svg11.dtd"><svg t="1576478771606" class="icon" viewBox="0 0 1035 1024" version="1.1" xmlns="http://www.w3.org/2000/svg" p-id="66441" xmlns:xlink="http://www.w3.org/1999/xlink" width="16.171875" height="16"><defs><style type="text/css"></style></defs><path d="M641.635096 770.147991c-101.25869 0-202.520854 0-303.779544-0.003474-43.698102 0-77.720257-33.996098-77.725469-77.829698-0.027794-201.308321-0.027794-402.616642 0-603.9267 0.005211-44.04727 34.079482-77.95651 78.168443-77.95651 202.173424 0 404.352059 0 606.528957 0 44.354746 0 78.237929 33.865812 78.251826 78.39601 0.034743 148.597866 0.010423 297.193995 0.010423 445.795335 0 52.53674 0.039955 105.075217-0.010423 157.610219-0.041692 38.575235-26.295296 70.087204-64.196516 77.006287-4.228232 0.771296-8.624968 0.86684-12.940058 0.868577C844.508592 770.154939 743.069238 770.147991 641.635096 770.147991L641.635096 770.147991zM641.204282 707.723372c91.376023 0 182.757257 0.029532 274.136753-0.057326 7.259565-0.008686 14.560822-0.470769 21.761325-1.356717 12.962641-1.59297 19.395321-7.492344 21.349619-20.302115 1.327185-8.69098 1.923029-17.579996 1.924766-26.380416 0.105966-179.639066 0.093806-359.276394 0.03648-538.91546-0.001737-7.264777-0.460346-14.546925-1.096144-21.787382-1.374089-15.58748-7.141439-22.041006-22.452712-24.580725-6.463949-1.075298-13.10335-1.492215-19.66458-1.497427-183.801286-0.076435-367.599097-0.083383-551.398646 0.017372-7.240457 0.006949-14.548662 0.759136-21.702261 1.921292-11.677147 1.900446-17.602579 7.606996-19.306726 19.282406-1.372351 9.394527-2.09327 18.967981-2.098482 28.459789-0.118126 178.596773-0.099018 357.195284-0.043429 535.792057 0.001737 7.266514 0.416917 14.548662 1.030132 21.792593 1.506112 17.78498 7.770289 24.400061 25.246055 26.48812 6.34756 0.757399 12.781977 1.06835 19.17644 1.073561C459.136675 707.745955 550.170479 707.723372 641.204282 707.723372L641.204282 707.723372z" p-id="66442" fill="#444444"></path><path d="M399.946637 1011.523762c-101.253479 0-202.50522 0.005211-303.758698 0-43.051881-0.001737-77.40757-34.029104-77.41973-77.06535-0.064275-201.810358-0.064275-403.625928 0-605.439761 0.01216-43.093572 34.352215-77.207797 77.329398-77.207797 24.792658-0.001737 49.585316-0.010423 74.377973 0.001737 18.34608 0.010423 31.751696 13.21974 31.71869 31.223601-0.031269 17.680751-13.483787 30.879644-31.430322 31.070731-20.267372 0.217144-40.534745 0.614952-60.802117 0.941537-0.517672 0.008686-1.042292 0.034743-1.55649 0.083383-17.33332 1.610341-24.365318 8.586751-26.059043 26.397788-0.703547 7.408961-1.06835 14.875247-1.070087 22.315477-0.057326 178.577665-0.07296 357.158804 0.03648 535.736468 0.005211 9.149589 0.70181 18.361715 1.959509 27.422709 1.80664 12.988698 8.423458 19.1278 21.568501 20.705135 6.865231 0.823411 13.812109 1.335871 20.72077 1.337608 183.087316 0.067749 366.176369 0.066012 549.261947 0.008686 6.224222-0.003474 12.477975-0.406494 18.655294-1.123938 16.537703-1.912606 23.489793-8.699666 24.39485-25.470148 0.974543-18.154993 0.993652-36.365576 1.172579-54.555312 0.185875-19.442224 13.93371-33.78764 32.212041-33.242173 18.630974 0.552415 31.550186 16.329245 30.832741 35.854853-0.781719 21.299242-0.253624 42.643649-0.39086 63.967211-0.206721 32.967703-20.620015 62.254378-51.520505 72.720729-7.884941 2.671742-16.581132 4.118791-24.912521 4.143112C603.494149 1011.62278 501.719524 1011.523762 399.946637 1011.523762L399.946637 1011.523762z" p-id="66443" fill="#444444"></path><path d="M602.76107 426.393065c-2.808978 0-4.858819 0-6.912135 0-47.333964 0-94.667929 0.034743-142.001893-0.019109-17.798877-0.019109-33.282128-13.455993-35.424039-30.507894-2.393798-19.054839 8.487733-35.761046 26.531549-40.340184 3.474307-0.880737 7.191816-1.075298 10.798147-1.083984 46.642577-0.069486 93.279943-0.043429 139.924257-0.043429 2.199237 0 4.398473 0 7.082376 0 0-2.798555 0-4.853607 0-6.906923 0-46.816293-0.005211-93.629111 0.001737-140.443666 0.003474-21.521597 15.34949-37.430451 36.077208-37.432188 20.691238-0.001737 36.108477 15.948808 36.1189 37.454771 0.022583 46.814555 0.010423 93.629111 0.010423 140.441929 0 2.05679 0 4.111843 0 6.886077 2.696063 0 4.898773 0 7.103222 0 47.332227 0 94.667929-0.055589 142.000156 0.033006 17.725917 0.033006 32.623747 12.959167 35.156517 30.11356 2.663057 18.002124-7.721648 34.98975-24.813504 40.100456-3.753989 1.120464-7.817192 1.664193-11.744896 1.672879-46.988271 0.111178-93.976542 0.07296-140.963075 0.07296-2.037681 0-4.080574 0-6.738419 0 0 2.522347 0 4.54092 0 6.564704 0 47.158512 0.090332 94.318761-0.055589 141.480747-0.04864 15.453719-7.124067 27.18993-21.316613 33.436735-13.846852 6.092198-27.236833 4.117054-38.80454-5.925431-8.135091-7.063267-12.029789-16.327508-12.029789-27.163873 0.001737-47.332227 0-94.666192 0-142.000156C602.76107 430.900979 602.76107 429.012693 602.76107 426.393065L602.76107 426.393065z" p-id="66444" fill="#444444"></path></svg>