<?xml version="1.0" standalone="no"?><!DOCTYPE svg PUBLIC "-//W3C//DTD SVG 1.1//EN" "http://www.w3.org/Graphics/SVG/1.1/DTD/svg11.dtd"><svg t="1576575866805" class="icon" viewBox="0 0 1024 1024" version="1.1" xmlns="http://www.w3.org/2000/svg" p-id="4619" xmlns:xlink="http://www.w3.org/1999/xlink" width="200" height="200"><defs><style type="text/css"></style></defs><path d="M702.68247 257.437305a63.880225 63.880225 0 0 1-63.880224-63.880225v-191.640673l255.520898 255.520898z m191.640674 63.880225v574.922021a127.760449 127.760449 0 0 1-127.760449 127.760449H255.520898a127.760449 127.760449 0 0 1-127.760449-127.760449v-766.562695a127.760449 127.760449 0 0 1 127.760449-127.760449h319.401123v191.640673a127.760449 127.760449 0 0 0 127.760449 127.76045z m-638.802246 511.041796h383.281348v-63.880224H255.520898z m0-191.640673h511.041797v-63.880225H255.520898z m0-255.520899v63.880225h511.041797v-63.880225z" p-id="4620"></path></svg>