<?xml version="1.0" standalone="no"?><!DOCTYPE svg PUBLIC "-//W3C//DTD SVG 1.1//EN" "http://www.w3.org/Graphics/SVG/1.1/DTD/svg11.dtd"><svg t="1576486941281" class="icon" viewBox="0 0 1024 1024" version="1.1" xmlns="http://www.w3.org/2000/svg" p-id="239935" xmlns:xlink="http://www.w3.org/1999/xlink" width="16" height="16"><defs><style type="text/css"></style></defs><path d="M953.87 377.587c-3.615-3.69-8.051-5.59-13.184-5.648-12.528-0.141-26.537 10.954-36.075 20.277L563.331 723.75c-12.513 12.241-58.579 87.06-60.533 90.24l-7.461 12.133 12.15-7.435c3.221-1.97 79.048-48.427 91.535-60.636l341.28-331.534c15.168-14.832 26.7-35.475 13.567-48.931zM740.87 480.702c0 27.64-22.433 50.07-50.07 50.07-27.643 0-50.075-22.43-50.075-50.07s22.432-50.072 50.075-50.072c27.637 0 50.07 22.433 50.07 50.072zM215.127 655.943c-27.64 0-50.07-22.426-50.07-50.066 0-27.64 22.43-50.073 50.07-50.073 27.639 0 50.071 22.433 50.071 50.073s-22.432 50.066-50.07 50.066zM290.234 480.702c0-27.64 22.433-50.072 50.069-50.072 27.64 0 50.072 22.433 50.072 50.072s-22.431 50.07-50.072 50.07c-27.637 0-50.07-22.407-50.07-50.07zM465.481 430.63c0-27.639 22.43-50.069 50.07-50.069s50.073 22.43 50.073 50.069c0 27.64-22.433 50.072-50.074 50.072-27.64 0-50.069-22.408-50.069-50.072z" fill="#444444" p-id="239936"></path><path d="M852.743 600.437C829.73 749.565 693.84 900.703 500.416 900.703c-36.82 0-76.081-7.283-107.714-19.98-33.644-13.506-48.903-29.385-51.963-39.737-1.596-5.403-3.097-11.309-4.686-17.56-4.655-18.321-9.932-39.087-20.273-56.32-18.394-30.65-44.862-37.084-63.828-37.084-7.175 0-14.815 0.914-22.7 2.714-12.88 2.94-25.39 4.43-37.182 4.43-25.15 0-67.536-6.674-68.839-51.364-6.597-228.189 180.929-352.126 369.696-373.728 13.351-1.526 27.633-2.299 42.449-2.299 53.181 0 111.664 10.011 152.628 26.127 9.257 3.642 14.39 6.023 39.246 18.204 25.68 12.585 46.398 30.465 62.965 47.694l30.19-53.133c-18.046-17.03-40.377-34.443-67.175-47.576-24.917-12.21-31.928-15.531-43.613-20.127-47.39-18.645-114.156-30.226-174.241-30.226-17.045 0-33.58 0.901-49.155 2.68-115.638 13.234-220.925 59.122-296.463 129.215-85.6 79.428-129.01 184.853-125.54 304.883 1.006 34.508 15.134 63.085 40.855 82.646 22.404 17.037 52.487 26.042 86.997 26.042 16.204 0 33.133-1.987 50.322-5.91 3.586-0.818 6.802-1.234 9.559-1.234 11.481 0 17.01 10.055 26.881 48.906 1.656 6.516 3.369 13.256 5.287 19.752 9.445 31.945 39.385 58.847 86.59 77.795 38.36 15.398 85.636 24.23 129.706 24.23 54.162 0 106.59-10.147 155.828-30.156 46.291-18.814 88.597-45.814 125.742-80.252 35.782-33.176 65.34-71.869 87.851-115.007 22.55-43.21 36.927-88.763 42.738-135.416 0.262-2.12 0.508-4.326 0.732-6.554l0.149-1.471v-0.059c0.222-2.338 0.405-4.7 0.572-7.072l-61.284 16.681z" fill="#444444" p-id="239937"></path></svg>