<?xml version="1.0" standalone="no"?><!DOCTYPE svg PUBLIC "-//W3C//DTD SVG 1.1//EN" "http://www.w3.org/Graphics/SVG/1.1/DTD/svg11.dtd"><svg t="1576476649902" class="icon" viewBox="0 0 1024 1024" version="1.1" xmlns="http://www.w3.org/2000/svg" p-id="7073" xmlns:xlink="http://www.w3.org/1999/xlink" width="16" height="16"><defs><style type="text/css"></style></defs><path d="M939.227429 489.033143a27.062857 27.062857 0 0 1 3.510857 40.448c-3.510857 0-3.510857 3.364571-3.510857 3.364571l-175.323429 171.885715a32.475429 32.475429 0 0 1-24.502857 10.166857 32.402286 32.402286 0 0 1-24.576-10.166857 31.744 31.744 0 0 1 0-47.177143l115.712-111.177143H493.933714c-21.065143 0-35.108571-13.531429-35.108571-33.792 0-20.187429 14.043429-33.645714 35.108571-33.645714h336.603429L714.825143 367.616a31.744 31.744 0 0 1 0-47.250286 34.816 34.816 0 0 1 49.078857 0l175.323429 168.594286z m-94.646858 259.584c20.992 0 35.108571 13.458286 35.108572 33.645714v67.437714c0 57.344-45.641143 101.156571-105.252572 101.156572h-596.114285C118.710857 950.857143 73.142857 906.971429 73.142857 849.700571V175.542857c0-57.270857 45.568-101.083429 105.179429-101.083428h596.114285c59.611429 0 105.179429 43.812571 105.179429 101.083428v67.437714c0 20.260571-14.043429 33.718857-35.108571 33.718858-20.992 0-35.035429-13.458286-35.035429-33.645715v-67.510857c0-20.187429-13.970286-33.645714-35.035429-33.645714h-596.114285c-20.992 0-35.108571 13.458286-35.108572 33.645714v674.230857c0 20.260571 14.116571 33.718857 35.108572 33.718857h596.114285c21.065143 0 35.108571-13.458286 35.108572-33.645714v-67.437714c0-20.260571 13.970286-33.718857 35.035428-33.718857z" p-id="7074" fill="#444444"></path></svg>