<?xml version="1.0" standalone="no"?><!DOCTYPE svg PUBLIC "-//W3C//DTD SVG 1.1//EN" "http://www.w3.org/Graphics/SVG/1.1/DTD/svg11.dtd"><svg t="1576478027843" class="icon" viewBox="0 0 1024 1024" version="1.1" xmlns="http://www.w3.org/2000/svg" p-id="54498" xmlns:xlink="http://www.w3.org/1999/xlink" width="16" height="16"><defs><style type="text/css"></style></defs><path d="M905.459 498.479L913 512.51l-7.541 14.01C839.289 648.764 683.164 773 512 773c-171.185 0-327.312-124.234-393.079-246.479L111 512.511l7.921-14.032C184.688 375.828 340.815 252 512 252c171.164 0 327.29 123.827 393.459 246.479zM512 715.307c141.043 0 274.591-102.212 335.614-202.796C786.59 411.497 653.044 309.714 512 309.714c-141.066 0-274.613 101.783-335.635 202.797C237.386 613.095 370.935 715.307 512 715.307zM511.5 641C438.322 641 379 581.23 379 507.5c0-73.73 59.322-133.5 132.5-133.5S644 433.77 644 507.5c0 73.73-59.322 133.5-132.5 133.5z m0.576-51.078c44.861 0 81.228-36.642 81.228-81.842 0-45.2-36.367-81.84-81.228-81.84s-81.228 36.64-81.228 81.84 36.367 81.842 81.228 81.842z" p-id="54499" fill="#444444"></path></svg>