<?xml version="1.0" standalone="no"?><!DOCTYPE svg PUBLIC "-//W3C//DTD SVG 1.1//EN" "http://www.w3.org/Graphics/SVG/1.1/DTD/svg11.dtd"><svg t="1576478721452" class="icon" viewBox="0 0 1024 1024" version="1.1" xmlns="http://www.w3.org/2000/svg" p-id="66023" xmlns:xlink="http://www.w3.org/1999/xlink" width="16" height="16"><defs><style type="text/css"></style></defs><path d="M2.048 476.672V134.144C2.048 9.216 70.656 0 137.728 0h545.28c104.448 0 137.728 35.328 137.728 135.68v69.12c0 53.76-69.12 48.64-69.12 0v-69.12c0-50.176-16.896-69.12-69.12-69.12H137.728c-55.808 0-69.12 7.68-69.12 69.12V819.2c0 37.376 20.48 69.12 69.12 69.12h135.68c40.96 0 44.544 69.12 0 69.12H111.616c-48.64 0-89.6-29.696-104.448-74.24-3.584-12.8-5.632-26.112-5.632-38.912l0.512-367.616" p-id="66024" fill="#444444"></path><path d="M681.472 1021.952c-187.904 0-340.48-152.576-340.48-340.48s152.576-340.48 340.48-340.48S1024 495.104 1024 683.52s-152.576 338.432-342.528 338.432zM683.52 409.6c-148.992 0-271.872 122.88-271.872 271.872 0 151.04 120.832 271.872 271.872 273.92 151.04 0 273.92-120.832 273.92-269.824C954.88 532.48 834.048 409.6 683.52 409.6zM614.4 204.8c53.76 0 46.592 69.12 0 69.12H204.8c-50.176 0-48.64-69.12 0-69.12h409.6zM273.92 409.6c53.76 0 46.592 69.12 0 69.12H204.8c-50.176 0-48.64-69.12 0-69.12h69.12z" p-id="66025" fill="#444444"></path><path d="M850.944 555.008c-14.848-14.848-40.96-14.848-55.808 0l-171.52 171.52-52.224-52.224c-14.848-14.848-40.96-14.848-55.808 0s-14.848 40.96 0 55.808l79.872 79.872c7.68 7.68 18.432 11.264 28.16 11.264 9.216 0 20.48-3.584 28.16-11.264l3.584-3.584c2.048 0 2.048-2.048 3.584-3.584l192-192c14.848-14.848 14.848-40.96 0-55.808z" p-id="66026" fill="#444444"></path></svg>