<?xml version="1.0" standalone="no"?><!DOCTYPE svg PUBLIC "-//W3C//DTD SVG 1.1//EN" "http://www.w3.org/Graphics/SVG/1.1/DTD/svg11.dtd"><svg t="1576468093514" class="icon" viewBox="0 0 1024 1024" version="1.1" xmlns="http://www.w3.org/2000/svg" p-id="2089" xmlns:xlink="http://www.w3.org/1999/xlink" width="16" height="16"><defs><style type="text/css"></style></defs><path d="M512 28.444444A483.555556 483.555556 0 1 0 995.555556 512 484.124444 484.124444 0 0 0 512 28.444444z m0 910.222223A426.666667 426.666667 0 1 1 938.666667 512 426.666667 426.666667 0 0 1 512 938.666667z" fill="#444444" p-id="2090"></path><path d="M506.88 662.755556a46.648889 46.648889 0 0 0-35.271111 13.653333 45.511111 45.511111 0 0 0-16.497778 34.702222 46.648889 46.648889 0 0 0 14.791111 34.702222 47.786667 47.786667 0 0 0 35.271111 14.791111 51.2 51.2 0 0 0 35.271111-13.653333 49.493333 49.493333 0 0 0 15.36-35.84 47.217778 47.217778 0 0 0-14.222222-34.702222 49.493333 49.493333 0 0 0-34.702222-13.653333zM519.395556 263.395556A159.288889 159.288889 0 0 0 398.222222 307.2a159.857778 159.857778 0 0 0-43.235555 117.191111h73.955555a113.777778 113.777778 0 0 1 18.773334-69.404444A74.524444 74.524444 0 0 1 512 325.973333a79.644444 79.644444 0 0 1 56.888889 20.48 76.8 76.8 0 0 1 19.911111 56.888889 77.368889 77.368889 0 0 1-19.342222 49.493334l-11.377778 13.084444a345.884444 345.884444 0 0 0-73.955556 83.626667 141.653333 141.653333 0 0 0-13.653333 64.853333v11.377778h73.386667v-11.377778a92.16 92.16 0 0 1 10.808889-45.511111 125.155556 125.155556 0 0 1 28.444444-35.84 687.786667 687.786667 0 0 0 56.888889-52.906667A133.12 133.12 0 0 0 666.737778 398.222222 124.017778 124.017778 0 0 0 625.777778 299.804444a154.168889 154.168889 0 0 0-106.382222-36.408888z" fill="#444444" p-id="2091"></path></svg>