<?xml version="1.0" standalone="no"?><!DOCTYPE svg PUBLIC "-//W3C//DTD SVG 1.1//EN" "http://www.w3.org/Graphics/SVG/1.1/DTD/svg11.dtd"><svg t="1577155949807" class="icon" viewBox="0 0 1205 1024" version="1.1" xmlns="http://www.w3.org/2000/svg" p-id="38354" xmlns:xlink="http://www.w3.org/1999/xlink" width="23.53515625" height="20"><defs><style type="text/css"></style></defs><path d="M1103.092602 906.63958v15.125106a15.125106 15.125106 0 0 1-15.125106 15.125106H45.331979A45.331979 45.331979 0 0 1 0 891.557813V15.081767A15.125106 15.125106 0 0 1 15.081767 0h15.125106a15.125106 15.125106 0 0 1 15.125106 15.081767v861.35094a15.125106 15.125106 0 0 0 15.125106 15.125106h1027.55375a15.125106 15.125106 0 0 1 15.125105 15.125106z" fill="#F5B216" p-id="38355"></path><path d="M179.291011 846.225834h181.327916a15.125106 15.125106 0 0 0 15.125106-15.125106V226.659895a15.125106 15.125106 0 0 0-15.125106-15.125106H179.291011a15.125106 15.125106 0 0 0-15.125106 15.125106v604.440833a15.125106 15.125106 0 0 0 15.125106 15.125106zM466.407991 846.225834h181.327916a15.125106 15.125106 0 0 0 15.125105-15.125106V105.745725a15.125106 15.125106 0 0 0-15.125105-15.125105h-181.327916a15.125106 15.125106 0 0 0-15.125106 15.125105v725.355003a15.125106 15.125106 0 0 0 15.125106 15.125106zM753.52497 846.225834h181.327916a15.125106 15.125106 0 0 0 15.125106-15.125106V453.31979a15.125106 15.125106 0 0 0-15.125106-15.125106h-181.327916a15.125106 15.125106 0 0 0-15.125105 15.125106v377.780938a15.125106 15.125106 0 0 0 15.125105 15.125106z" fill="#F5B216" p-id="38356"></path></svg>