<?xml version="1.0" standalone="no"?><!DOCTYPE svg PUBLIC "-//W3C//DTD SVG 1.1//EN" "http://www.w3.org/Graphics/SVG/1.1/DTD/svg11.dtd"><svg t="1577179136496" class="icon" viewBox="0 0 1024 1024" version="1.1" xmlns="http://www.w3.org/2000/svg" p-id="1870" xmlns:xlink="http://www.w3.org/1999/xlink" width="18" height="18"><defs><style type="text/css"></style></defs><path d="M665.6 460.8h-76.8a25.6 25.6 0 0 1-25.6-25.6V358.4a51.2 51.2 0 0 0-102.4 0v76.8a25.6 25.6 0 0 1-25.6 25.6H358.4a51.2 51.2 0 1 0 0 102.4h76.8a25.6 25.6 0 0 1 25.6 25.6V665.6a51.2 51.2 0 1 0 102.4 0v-76.8a25.6 25.6 0 0 1 25.6-25.6H665.6a51.2 51.2 0 1 0 0-102.4z" fill="#444444" p-id="1871"></path><path d="M512 0a512 512 0 1 0 512 512A512 512 0 0 0 512 0z m0 921.6a409.6 409.6 0 1 1 409.6-409.6 409.6 409.6 0 0 1-409.6 409.6z" fill="#444444" p-id="1872"></path></svg>