<?xml version="1.0" standalone="no"?><!DOCTYPE svg PUBLIC "-//W3C//DTD SVG 1.1//EN" "http://www.w3.org/Graphics/SVG/1.1/DTD/svg11.dtd"><svg t="1576468277431" class="icon" viewBox="0 0 1024 1024" version="1.1" xmlns="http://www.w3.org/2000/svg" p-id="3545" xmlns:xlink="http://www.w3.org/1999/xlink" width="16" height="16"><defs><style type="text/css"></style></defs><path d="M264.106667 860.117333h476.8v-268.202666a29.781333 29.781333 0 0 1 59.605333 0v297.984a29.781333 29.781333 0 0 1-29.781333 29.824H234.325333a29.781333 29.781333 0 0 1-29.781333-29.824v-297.984a29.781333 29.781333 0 0 1 59.562667 0v268.202666z m238.421333-694.741333L144.341333 523.52a29.824 29.824 0 0 1-42.24-42.154667l379.306667-379.306666a29.781333 29.781333 0 0 1 42.24 0l379.264 379.306666a29.866667 29.866667 0 1 1-42.24 42.24l-358.144-358.229333v-0.042667z" p-id="3546" fill="#444444"></path></svg>