<?xml version="1.0" standalone="no"?><!DOCTYPE svg PUBLIC "-//W3C//DTD SVG 1.1//EN" "http://www.w3.org/Graphics/SVG/1.1/DTD/svg11.dtd"><svg t="1576482918404" class="icon" viewBox="0 0 1024 1024" version="1.1" xmlns="http://www.w3.org/2000/svg" p-id="148276" xmlns:xlink="http://www.w3.org/1999/xlink" width="16" height="16"><defs><style type="text/css"></style></defs><path d="M415.68 256.64h512c17.6 0 32-14.4 32-32s-14.4-32-32-32h-512c-17.6 0-32 14.4-32 32s14.4 32 32 32zM415.68 512.32h512c17.6 0 32-14.4 32-32s-14.4-32-32-32h-512c-17.6 0-32 14.4-32 32s14.4 32 32 32zM927.872 704.64h-512c-17.6 0-32 14.4-32 32s14.4 32 32 32h512c17.6 0 32-14.4 32-32s-14.4-32-32-32zM265.536 136.704L160.128 242.112l-41.408-41.408a32.128 32.128 0 0 0-45.248 0 32.128 32.128 0 0 0 0 45.248l63.808 63.808 0.128 0.256a31.936 31.936 0 0 0 22.72 9.344 31.744 31.744 0 0 0 22.656-9.344l0.128-0.256 127.872-127.872a32.128 32.128 0 0 0 0-45.248 32.064 32.064 0 0 0-45.248 0.064zM265.536 393.984L160.128 499.392l-41.408-41.408a32.128 32.128 0 0 0-45.248 0 32.128 32.128 0 0 0 0 45.248l63.872 63.872 0.128 0.256a31.872 31.872 0 0 0 22.656 9.28 31.744 31.744 0 0 0 22.656-9.344l0.128-0.256 127.872-127.872a32.128 32.128 0 0 0 0-45.248 32.192 32.192 0 0 0-45.248 0.064zM265.536 649.984l-105.408 105.408-41.408-41.408a32.128 32.128 0 0 0-45.248 0 32.128 32.128 0 0 0 0 45.248l63.872 63.872 0.128 0.256a32 32 0 0 0 45.312 0l0.128-0.256 127.872-127.872a32.128 32.128 0 0 0 0-45.248 32.128 32.128 0 0 0-45.248 0z" p-id="148277" fill="#444444"></path></svg>