<?xml version="1.0" standalone="no"?><!DOCTYPE svg PUBLIC "-//W3C//DTD SVG 1.1//EN" "http://www.w3.org/Graphics/SVG/1.1/DTD/svg11.dtd"><svg t="1576467021345" class="icon" viewBox="0 0 1024 1024" version="1.1" xmlns="http://www.w3.org/2000/svg" p-id="37673" xmlns:xlink="http://www.w3.org/1999/xlink" width="16" height="16"><defs><style type="text/css"></style></defs><path d="M204.8 71.68h614.4c33.93024 0 61.44 27.50976 61.44 61.44v757.76c0 33.93024-27.50976 61.44-61.44 61.44H204.8c-33.93024 0-61.44-27.50976-61.44-61.44V133.12c0-33.93024 27.50976-61.44 61.44-61.44z m122.88 578.56a20.48 20.48 0 1 0 0 40.96h368.64a20.48 20.48 0 1 0 0-40.96H327.68z m0 112.64a20.48 20.48 0 1 0 0 40.96h368.64a20.48 20.48 0 1 0 0-40.96H327.68z m179.5584-281.6512a10.24 10.24 0 0 1 9.5232 0l76.1856 40.04864a10.24 10.24 0 0 0 14.85824-10.79808l-14.55104-84.82816a10.24 10.24 0 0 1 2.944-9.0624l61.63456-60.07808a10.24 10.24 0 0 0-5.67296-17.46432l-85.17632-12.38016a10.24 10.24 0 0 1-7.71072-5.60128l-38.0928-77.17888a10.24 10.24 0 0 0-18.36032 0l-38.0928 77.17888a10.24 10.24 0 0 1-7.71072 5.60128L371.84 339.0464a10.24 10.24 0 0 0-5.67296 17.46432l61.63456 60.07808a10.24 10.24 0 0 1 2.944 9.0624l-14.55104 84.82816a10.24 10.24 0 0 0 14.85824 10.79808l76.1856-40.05376z" p-id="37674" fill="#444444"></path></svg>