<?xml version="1.0" standalone="no"?><!DOCTYPE svg PUBLIC "-//W3C//DTD SVG 1.1//EN" "http://www.w3.org/Graphics/SVG/1.1/DTD/svg11.dtd"><svg t="1576466531670" class="icon" viewBox="0 0 1024 1024" version="1.1" xmlns="http://www.w3.org/2000/svg" p-id="12512" xmlns:xlink="http://www.w3.org/1999/xlink" width="16" height="16"><defs><style type="text/css"></style></defs><path d="M366.042693 753.509434C281.948441 704.361708 222.606122 610.963221 222.606122 507.726285 222.606122 350.355621 356.159727 222.58934 519.406749 222.58934c163.202504 0 296.756108 127.810799 296.756108 285.136945 0 103.236936-59.342318 196.635423-143.436571 245.783149-4.941483 24.618381-14.82445 49.192244-34.634901 68.824624H400.677595c-19.765933-19.63238-29.693418-44.206243-34.634902-68.824624z m366.025911-216.312321c0-122.869316-93.932702-216.267803-212.661855-221.209286-19.810451 0-29.693418 9.838449-29.693418 29.515347 0 4.896965 9.882967 14.735414 29.693418 14.735414 89.035736 0 168.143987 73.721589 168.143987 176.958525 0 4.896965 9.927485 14.779932 29.693418 14.779932 4.941483-4.896965 14.82445-9.838449 14.82445-14.779932z m-341.273976 353.961569c0-19.63238 14.82445-29.470829 29.6489-29.470829h197.881923c14.82445 0 29.693418 9.793931 29.693418 29.470829 0 19.676898-14.868968 24.618381-29.693418 24.618381H420.443528c-4.896965 0-14.82445-4.896965-19.765933-9.838449-4.941483-4.896965-9.882967-9.838449-9.882967-14.779932z m242.355273 63.927658c-19.765933 44.250761-64.283801 68.824624-113.743152 68.824624-49.459351 0-89.035736-24.573863-113.787671-68.824624h227.530823zM513.040693 161.421789c19.63238 0 37.083384-17.451004 37.083384-37.083384V37.083384A38.196331 38.196331 0 0 0 513.040693 0a38.196331 38.196331 0 0 0-37.038866 37.083384v87.255021c0 19.63238 17.451004 37.083384 37.038866 37.083384zM268.904705 215.956178c6.544127 10.906878 19.587862 15.269629 30.49474 15.269628a42.069385 42.069385 0 0 0 21.813755-6.544126c17.451004-13.088253 19.63238-34.902009 8.725502-52.353013L279.767065 102.52465c-13.088253-17.451004-34.902009-19.63238-52.353013-8.725502-17.451004 13.088253-19.587862 34.902009-8.725502 52.353013L268.904705 215.956178zM177.286933 340.294583L94.394663 314.118077a38.285366 38.285366 0 0 0-47.945744 23.995131 38.285366 38.285366 0 0 0 23.995131 47.990261l82.803234 26.176507c4.407269 0 8.77002 2.181376 13.132771 2.181375a37.305973 37.305973 0 0 0 34.857491-26.176506 38.285366 38.285366 0 0 0-23.950613-47.990262z m776.213546 253.039562l-82.803234-26.176507a38.285366 38.285366 0 0 0-47.990262 23.995131 38.285366 38.285366 0 0 0 23.950613 47.990262l82.892271 26.176506c4.362751 2.181376 8.725502 2.181376 10.906877 2.181376a37.305973 37.305973 0 0 0 34.857491-26.176506 35.525259 35.525259 0 0 0-21.813756-47.990262zM155.473178 567.157638l-82.892271 26.176507a38.285366 38.285366 0 0 0-23.950613 47.990262c4.362751 15.269629 19.587862 26.176506 34.857491 26.176506 4.362751 0 8.725502 0 10.906878-2.181376l82.89227-26.176506a38.285366 38.285366 0 0 0 23.950613-47.990262c-6.544127-19.63238-26.131989-30.539257-45.764368-23.995131z m704.272671-152.696287c4.362751 0 8.725502 0 10.906878-2.181375l82.847752-26.176507a38.285366 38.285366 0 0 0 24.039649-47.990261 38.285366 38.285366 0 0 0-47.990261-23.995131l-82.892271 26.176506a38.285366 38.285366 0 0 0-23.950613 47.990262c6.544127 15.269629 21.813755 26.176506 37.038866 26.176506z m-111.205634-311.936701l-50.127119 69.804017c-13.088253 17.451004-8.725502 39.26476 8.725502 52.353013a42.069385 42.069385 0 0 0 21.813755 6.544126c10.86236 0 23.950613-4.362751 30.49474-15.269628l50.171637-69.804017c13.088253-17.451004 8.725502-39.26476-8.725502-52.353013-17.451004-13.088253-41.401617-8.725502-52.353013 8.725502z" p-id="12513" fill="#444444"></path></svg>