<?xml version="1.0" standalone="no"?><!DOCTYPE svg PUBLIC "-//W3C//DTD SVG 1.1//EN" "http://www.w3.org/Graphics/SVG/1.1/DTD/svg11.dtd"><svg t="1577156066685" class="icon" viewBox="0 0 1024 1024" version="1.1" xmlns="http://www.w3.org/2000/svg" p-id="43142" xmlns:xlink="http://www.w3.org/1999/xlink" width="20" height="20"><defs><style type="text/css"></style></defs><path d="M988.672 836.096H71.168V131.584c0-15.36-10.24-30.208-30.208-30.208H35.84c-15.36 0-30.208 10.24-30.208 30.208v739.84c0 10.24 5.12 20.48 10.24 20.48 10.24 5.12 15.36 10.24 25.088 10.24h947.712c15.36 0 30.208-10.24 30.208-30.208v-5.12c0-15.36-10.24-30.72-30.208-30.72z" fill="#999999" p-id="43143"></path><path d="M157.184 522.24c10.24 0 20.48-5.12 30.208-15.36l116.736-131.584s15.36-10.24 25.088 0L466.432 486.4c5.12 0 15.36 10.24 35.328 0l253.44-283.648c10.24-10.24 15.36-25.088 10.24-40.448-5.12-10.24-15.36-20.48-30.208-25.088-10.24 0-25.6 5.12-35.328 15.36L491.52 379.904c-15.36 15.36-30.208 0-30.208 0L334.336 278.528l-5.12-5.12c-20.48-15.36-35.328 0-35.328 0L126.976 456.192c-10.24 10.24-10.24 25.6-5.12 40.448 5.12 15.36 19.968 25.6 35.328 25.6z" fill="#81A8FF" p-id="43144"></path><path d="M735.232 375.296L517.12 608.256c-15.36 15.36-30.208 0-30.208 0L354.816 501.76c-15.36-10.24-30.208 0-30.208 0l-167.424 187.392c-10.24 10.24-10.24 25.6-5.12 40.448 5.12 15.36 20.48 25.6 35.328 25.6 10.24 0 25.6-5.12 30.208-15.36l111.616-121.856s20.48-20.48 40.448-5.12L496.64 719.872s15.36 15.36 30.208 0L740.352 486.4c5.12-5.12 20.48-15.36 35.328 0l106.496 91.136c20.48 15.36 40.448 10.24 55.808-5.12 10.24-20.48 10.24-40.448-5.12-55.808l-167.424-141.824c-15.36-9.728-30.208 0.512-30.208 0.512z" fill="#FC90A6" p-id="43145"></path></svg>