<?xml version="1.0" standalone="no"?><!DOCTYPE svg PUBLIC "-//W3C//DTD SVG 1.1//EN" "http://www.w3.org/Graphics/SVG/1.1/DTD/svg11.dtd"><svg t="1576481501362" class="icon" viewBox="0 0 1024 1024" version="1.1" xmlns="http://www.w3.org/2000/svg" p-id="111749" xmlns:xlink="http://www.w3.org/1999/xlink" width="16" height="16"><defs><style type="text/css"></style></defs><path d="M514.381395 33.339535c-261.953488 0-476.27907 214.325581-476.279069 476.27907s214.325581 476.27907 476.279069 476.279069 476.27907-214.325581 476.27907-476.279069c-4.762791-261.953488-214.325581-476.27907-476.27907-476.27907z m0 738.232558c-33.339535 0-57.153488-23.813953-57.153488-57.153488s23.813953-57.153488 57.153488-57.153489 57.153488 23.813953 57.153489 57.153489-23.813953 57.153488-57.153489 57.153488z m57.153489-328.632558c-9.525581 76.204651-23.813953 142.883721-38.102326 161.934884-4.762791 4.762791-9.525581 9.525581-14.288372 9.525581-9.525581 0-14.288372-4.762791-14.288372-14.288372-14.288372-23.813953-28.576744-85.730233-38.102326-161.934884-4.762791-52.390698-9.525581-100.018605-4.76279-133.358139v-9.525582c0-33.339535 28.576744-61.916279 61.916279-61.916279 23.813953 0 42.865116 9.525581 52.390697 28.576744 4.762791 0 4.762791 4.762791 4.762791 9.525582 4.762791 4.762791 4.762791 14.288372 4.762791 19.051163v4.76279c-4.762791 42.865116-9.525581 90.493023-14.288372 147.646512z m0 0" fill="#e8624b" p-id="111750"></path></svg>