<?xml version="1.0" standalone="no"?><!DOCTYPE svg PUBLIC "-//W3C//DTD SVG 1.1//EN" "http://www.w3.org/Graphics/SVG/1.1/DTD/svg11.dtd"><svg t="1576575814085" class="icon" viewBox="0 0 1109 1024" version="1.1" xmlns="http://www.w3.org/2000/svg" p-id="3180" xmlns:xlink="http://www.w3.org/1999/xlink" width="216.6015625" height="200"><defs><style type="text/css"></style></defs><path d="M988.16 950.101333c0 37.674667-31.104 68.138667-69.333333 68.138667H52.608l121.301333-562.304c0-37.632 30.890667-68.138667 69.12-68.138667h797.098667A68.693333 68.693333 0 0 1 1109.333333 455.936l-121.173333 494.165333zM191.146667 336.64h779.648V269.696c0-37.632-31.104-68.138667-69.290667-68.138667h-415.786667V139.776c0-37.589333-31.018667-68.138667-69.248-68.138667H69.888c-38.229333 0-69.248 30.549333-69.248 68.138667v810.325333l121.173333-545.28c0-37.632 31.061333-68.181333 69.333334-68.181333z" p-id="3181"></path></svg>