<?xml version="1.0" standalone="no"?><!DOCTYPE svg PUBLIC "-//W3C//DTD SVG 1.1//EN" "http://www.w3.org/Graphics/SVG/1.1/DTD/svg11.dtd"><svg t="1576466624652" class="icon" viewBox="0 0 1024 1024" version="1.1" xmlns="http://www.w3.org/2000/svg" p-id="12746" xmlns:xlink="http://www.w3.org/1999/xlink" width="16" height="16"><defs><style type="text/css"></style></defs><path d="M781.312 459.4176a21.7088 21.7088 0 0 1-21.504-21.8624v-280.576a11.008 11.008 0 0 0-10.752-10.9056H266.24a11.008 11.008 0 0 0-10.752 10.9056v280.576a21.7088 21.7088 0 0 1-21.4528 21.8624 21.7088 21.7088 0 0 1-21.4528-21.8624v-280.576C212.5824 126.8224 236.6464 102.4 266.24 102.4h482.9696c29.5936 0 53.6064 24.4224 53.6064 54.5792v280.576a21.7088 21.7088 0 0 1-21.504 21.8624zM893.44 921.6H130.4064A54.1184 54.1184 0 0 1 76.8 867.0208V421.7344c0-26.112 18.0224-47.9232 42.0352-53.248a22.528 22.528 0 0 1 3.2256-1.7408l103.5264-44.7488a21.248 21.248 0 0 1 28.0576 11.5712 21.9136 21.9136 0 0 1-11.3664 28.5696L179.2 389.4272l340.1728 193.1776 323.584-192.8192-68.096-29.696a21.9136 21.9136 0 0 1-11.264-28.672 21.248 21.248 0 0 1 28.2624-11.52l107.2128 46.7456c0.6656 0.3072 1.3312 0.512 1.9456 0.9728 26.112 3.6864 46.2336 26.5216 46.2336 54.016v445.2864A54.3744 54.3744 0 0 1 893.44 921.6zM554.2912 393.216H339.712a23.1936 23.1936 0 0 1-22.9888-23.296c0-12.9024 10.2912-23.3984 22.9888-23.3984h214.5792c12.6976 0 22.9888 10.496 22.9888 23.3984a23.1936 23.1936 0 0 1-22.9888 23.3472z m115.456-121.344H339.712a23.1936 23.1936 0 0 1-22.9888-23.3472c0-12.8512 10.2912-23.3472 22.9888-23.3472h330.0352c12.6464 0 22.9376 10.496 22.9376 23.3472a23.1936 23.1936 0 0 1-22.9376 23.3472z" p-id="12747"></path></svg>