<?xml version="1.0" standalone="no"?><!DOCTYPE svg PUBLIC "-//W3C//DTD SVG 1.1//EN" "http://www.w3.org/Graphics/SVG/1.1/DTD/svg11.dtd"><svg t="1576481376481" class="icon" viewBox="0 0 1024 1024" version="1.1" xmlns="http://www.w3.org/2000/svg" p-id="107576" xmlns:xlink="http://www.w3.org/1999/xlink" width="16" height="16"><defs><style type="text/css"></style></defs><path d="M825.051429 332.068571l-16.091429-16.091428c-8.777143-8.777143-23.405714-8.777143-32.182857 0L434.468571 649.508571l-125.805714-131.657142c-4.388571-4.388571-14.628571 0-23.405714 8.777142l-16.091429 16.091429c-8.777143 8.777143-13.165714 20.48-8.777143 23.405714l166.765715 175.542857c4.388571 4.388571 14.628571 0 23.405714-8.777142l16.091429-16.091429c2.925714-2.925714 4.388571-5.851429 7.314285-8.777143l351.085715-343.771428c8.777143-8.777143 8.777143-23.405714 0-32.182858zM512 1024C229.668571 1024 0 794.331429 0 512S229.668571 0 512 0s512 229.668571 512 512-229.668571 512-512 512z" fill="#7dd159" p-id="107577"></path></svg>