<?xml version="1.0" standalone="no"?><!DOCTYPE svg PUBLIC "-//W3C//DTD SVG 1.1//EN" "http://www.w3.org/Graphics/SVG/1.1/DTD/svg11.dtd"><svg t="1577150321695" class="icon" viewBox="0 0 1024 1024" version="1.1" xmlns="http://www.w3.org/2000/svg" p-id="34120" xmlns:xlink="http://www.w3.org/1999/xlink" width="28" height="28"><defs><style type="text/css"></style></defs><path d="M512 0a512 512 0 1 0 512 512A512 512 0 0 0 512 0z m0 942.060204a430.060204 430.060204 0 1 1 430.060204-430.060204 430.060204 430.060204 0 0 1-430.060204 430.060204z" fill="#444444" p-id="34121"></path><path d="M257.62607 454.309859m57.124551 0l394.428059 0q57.124551 0 57.124551 57.124551l0 0.070699q0 57.124551-57.124551 57.124551l-394.428059 0q-57.124551 0-57.124551-57.124551l0-0.070699q0-57.124551 57.124551-57.124551Z" fill="#444444" p-id="34122"></path></svg>