<?xml version="1.0" standalone="no"?><!DOCTYPE svg PUBLIC "-//W3C//DTD SVG 1.1//EN" "http://www.w3.org/Graphics/SVG/1.1/DTD/svg11.dtd"><svg t="1576476472295" class="icon" viewBox="0 0 1024 1024" version="1.1" xmlns="http://www.w3.org/2000/svg" p-id="5855" xmlns:xlink="http://www.w3.org/1999/xlink" width="16" height="16"><defs><style type="text/css"></style></defs><path d="M131.7888 448.93696c-3.13344 10.22976-9.0624 13.3632-15.4112 15.2064-13.94176 4.0704-29.7984 0.90624-38.14912-7.10144-6.2208-5.96992-8.03328-15.40096-5.33504-23.76192 30.14656-147.15392 129.23392-278.6816 274.28864-338.60096C568.29952 3.35872 819.83488 106.24 921.0112 329.39008l20.44416-76.65664a21.13536 21.13536 0 0 1 11.66336-12.17024 20.096 20.096 0 0 1 16.55296 0.54784c11.0848 5.38624 16.2304 18.75968 11.76064 30.5664l-40.38656 128.01024c-3.2512 7.8848-7.0144 11.0592-16.41472 13.19424-5.57568 1.28-16.9216 1.62816-29.27616-4.20352l-121.7536-43.264c-11.136-5.33504-16.34816-18.72384-11.89376-30.5664a21.12512 21.12512 0 0 1 11.64288-12.15488 20.08576 20.08576 0 0 1 16.52736 0.52736l70.89664 19.10272c-44.61568-72.23296-78.57664-114.08384-148.1984-156.0064-107.6224-65.2288-230.81984-75.1616-346.6752-27.34592-130.23232 53.76-190.464 162.9952-233.28256 286.63808l-0.82944 3.328z m755.3024 126.13632c3.12832-10.23488 9.0624-13.3632 15.4112-15.21664 13.93664-4.07552 29.7984-0.90624 38.14912 7.11168 6.2208 5.9648 8.03328 15.40096 5.33504 23.76192-30.15168 147.1488-129.23904 278.6816-274.28864 338.59072-221.12256 91.32032-472.66304-11.56096-573.8496-234.7008l-20.44416 76.65152a21.13536 21.13536 0 0 1-11.66336 12.17536 20.096 20.096 0 0 1-16.55296-0.54784c-11.07968-5.4016-16.21504-18.77504-11.72992-30.57664l40.38144-128.01024c3.25632-7.8848 7.01952-11.0592 16.4096-13.2096 5.57568-1.26464 16.93184-1.62304 29.2864 4.20864l121.7536 43.3152c11.1104 5.37088 16.27136 18.74944 11.80672 30.5664a21.13536 21.13536 0 0 1-11.64288 12.15488 20.096 20.096 0 0 1-16.52736-0.51712l-70.90176-19.11808c44.61568 72.192 78.57664 114.09408 148.20352 156.02176 107.63264 65.2288 230.83008 75.1616 346.68544 27.33056 130.23744-53.76 190.47424-162.9952 233.2928-286.62272l0.88576-3.36896z" p-id="5856" fill="#444444"></path></svg>