<?xml version="1.0" standalone="no"?><!DOCTYPE svg PUBLIC "-//W3C//DTD SVG 1.1//EN" "http://www.w3.org/Graphics/SVG/1.1/DTD/svg11.dtd"><svg t="1576477301599" class="icon" viewBox="0 0 1024 1024" version="1.1" xmlns="http://www.w3.org/2000/svg" p-id="16486" xmlns:xlink="http://www.w3.org/1999/xlink" width="16" height="16"><defs><style type="text/css"></style></defs><path d="M988.028263 1023.863485a49.213705 49.213705 0 0 1-30.784162-11.945074l-138.426343-136.242101a256.648447 256.648447 0 0 1-159.040128 54.469537c-70.032262 0-134.945207-27.234769-182.862019-74.946807A250.505266 250.505266 0 0 1 400.057592 673.019597c0-68.189308 27.303026-132.89748 76.858019-182.315957a256.307159 256.307159 0 0 1 182.930276-74.946808c70.032262 0 135.013465 27.303026 182.930276 74.946808a250.505266 250.505266 0 0 1 76.858019 182.2477c0 49.418478-22.183709 110.782029-49.554993 153.37475l140.132783 139.654979c17.064391 17.064391 18.839088 34.128783 1.706439 51.193174 0-1.774697-11.945074 6.757499-23.890148 6.757499zM658.071191 858.611918c49.554993 0 97.403546-18.770831 133.307025-54.537795a183.612852 183.612852 0 0 0 54.67431-132.829222 186.547927 186.547927 0 0 0-187.981335-187.435276c-49.554993 0-97.471804 18.770831-133.307026 54.537795a183.612852 183.612852 0 0 0-54.742568 132.897481c0 49.35022 18.839088 97.062258 54.742568 132.829222a195.216638 195.216638 0 0 0 133.307026 54.537795zM789.740035 68.189308H68.462338v815.95094h283.678443v68.189308H80.407412A80.134382 80.134382 0 0 1 0.068258 872.263432V80.066125C0.068258 35.766964 35.971737 0 80.407412 0h699.093988c44.367418 0 80.339155 35.766964 80.339155 80.066125v299.855485h-68.394081V68.121051h-1.706439z m-470.021597 666.057326H206.888682c-25.664845 0-46.142114-15.357952-46.142115-34.128783 0-18.702573 20.47727-33.992268 46.142115-33.992268h112.829756c25.596587 0 46.142114 15.289695 46.142114 34.060526 0 18.702573-20.47727 34.128783-46.142114 34.128782zM165.865885 267.433142c0-18.702573 18.770831-34.060525 42.729236-34.060525h391.388881c23.890148 0 42.729236 15.357952 42.729236 34.128783 0 18.702573-18.770831 34.060525-42.729236 34.060525H208.595121c-23.890148 0-42.729236-15.357952-42.729236-34.128783z m1.706439 223.20224c0-18.770831 18.770831-34.128783 42.729236-34.128783h153.852553c23.890148 0 42.729236 15.357952 42.729236 34.128783s-18.839088 34.128783-42.729236 34.128783H210.30156c-23.890148 0-42.729236-15.357952-42.729236-34.128783z" p-id="16487" fill="#444444"></path></svg>