<?xml version="1.0" standalone="no"?><!DOCTYPE svg PUBLIC "-//W3C//DTD SVG 1.1//EN" "http://www.w3.org/Graphics/SVG/1.1/DTD/svg11.dtd"><svg t="1577266487095" class="icon" viewBox="0 0 1024 1024" version="1.1" xmlns="http://www.w3.org/2000/svg" p-id="5693" xmlns:xlink="http://www.w3.org/1999/xlink" width="200" height="200"><defs><style type="text/css"></style></defs><path d="M843.093333 686.08c-51.2 0-98.986667 23.893333-129.706666 64.853333l-337.92-201.386666c3.413333-13.653333 6.826667-30.72 6.826666-47.786667v-13.653333l337.92-204.8c30.72 34.133333 75.093333 58.026667 122.88 58.026666 88.746667 0 160.426667-71.68 160.426667-160.426666s-71.68-160.426667-160.426667-160.426667-160.426667 71.68-160.426666 160.426667c0 17.066667 3.413333 34.133333 6.826666 51.2l-334.506666 174.08c-34.133333-51.2-88.746667-85.333333-157.013334-85.333334-102.4 0-184.32 81.92-184.32 184.32 0 102.4 81.92 184.32 184.32 184.32 54.613333 0 102.4-23.893333 136.533334-61.44l351.573333 180.906667c-3.413333 13.653333-6.826667 27.306667-6.826667 40.96 0 88.746667 71.68 160.426667 160.426667 160.426667s160.426667-71.68 160.426667-160.426667c3.413333-92.16-68.266667-163.84-157.013334-163.84z" p-id="5694"></path></svg>