<?xml version="1.0" standalone="no"?><!DOCTYPE svg PUBLIC "-//W3C//DTD SVG 1.1//EN" "http://www.w3.org/Graphics/SVG/1.1/DTD/svg11.dtd"><svg t="1576480153806" class="icon" viewBox="0 0 1024 1024" version="1.1" xmlns="http://www.w3.org/2000/svg" p-id="86351" xmlns:xlink="http://www.w3.org/1999/xlink" width="16" height="16"><defs><style type="text/css"></style></defs><path d="M512 921.6a409.6 409.6 0 1 1 0-819.2 409.6 409.6 0 0 1 0 819.2z m0-756.1216A346.5216 346.5216 0 1 0 858.5216 512 347.0848 347.0848 0 0 0 512 165.4784z" p-id="86352" fill="#444444"></path><path d="M512 246.5792a31.3856 31.3856 0 0 1-31.3856-31.3856V160.5632a31.5392 31.5392 0 1 1 63.0784 0v54.6304a31.3856 31.3856 0 0 1-31.6928 31.3856z m0 647.68a31.3856 31.3856 0 0 1-31.3856-31.3856v-54.5792a31.5392 31.5392 0 1 1 63.0784 0v54.5792a31.3856 31.3856 0 0 1-31.6928 31.4368z m360.448-350.8736h-74.8032a31.5392 31.5392 0 1 1 0-63.0784h74.8032a31.5392 31.5392 0 1 1 0 63.0784z m-657.5616 0H160.3072a31.5392 31.5392 0 1 1 0-63.0784h54.5792a31.5392 31.5392 0 1 1 0 63.0784zM512 624.4864A112.4864 112.4864 0 1 1 624.4864 512 112.7936 112.7936 0 0 1 512 624.4864z m0-161.8944a49.408 49.408 0 1 0 49.408 49.408 49.664 49.664 0 0 0-49.408-49.408z" p-id="86353" fill="#444444"></path></svg>