<?xml version="1.0" standalone="no"?><!DOCTYPE svg PUBLIC "-//W3C//DTD SVG 1.1//EN" "http://www.w3.org/Graphics/SVG/1.1/DTD/svg11.dtd"><svg t="1576481020684" class="icon" viewBox="0 0 1024 1024" version="1.1" xmlns="http://www.w3.org/2000/svg" p-id="105288" xmlns:xlink="http://www.w3.org/1999/xlink" width="16" height="16"><defs><style type="text/css"></style></defs><path d="M808.6 98.5H216.8c-65.4 0-118.4 53-118.4 118.4v591.8c0 65.4 53 118.4 118.4 118.4h591.8C874 927 927 874 927 808.6V216.9c0-65.4-53-118.4-118.4-118.4z m-120.1 61.1v232.9H337.3V159.6h351.2z m179.4 649.2c0 32.6-26.4 59.1-59 59.1H217c-15.8 0-30.8-6.1-42-17.3-11.2-11.2-17.4-26-17.4-41.8V216.9c0.1-32.8 26.6-59.3 59.4-59.3h59.2v236.9c0 32.6 26.3 59.1 59 59.1h355.2c32.7 0 59.2-26.4 59.2-59.1V157.6h59.1c32.7 0 59.2 26.6 59.2 59.3v591.9zM572 336.3c-16.9 0-30.6-13.7-30.6-30.6v-59.2c0-16.9 13.7-30.6 30.6-30.6 16.9 0 30.6 13.7 30.6 30.6v59.2c0 16.9-13.7 30.6-30.6 30.6z" p-id="105289" fill="#444444"></path></svg>