<?xml version="1.0" standalone="no"?><!DOCTYPE svg PUBLIC "-//W3C//DTD SVG 1.1//EN" "http://www.w3.org/Graphics/SVG/1.1/DTD/svg11.dtd"><svg t="1576480455224" class="icon" viewBox="0 0 1024 1024" version="1.1" xmlns="http://www.w3.org/2000/svg" p-id="87999" xmlns:xlink="http://www.w3.org/1999/xlink" width="16" height="16"><defs><style type="text/css"></style></defs><path d="M256 439.68a32.64 32.64 0 0 0 21.12-8.32L481.28 224v490.24a30.08 30.08 0 0 0 60.16 0V224l207.36 206.72a30.72 30.72 0 0 0 42.88 0 32.64 32.64 0 0 0 8.32-21.12 32.64 32.64 0 0 0-8.32-21.76l-256-256a31.36 31.36 0 0 0-42.88 0l-256 259.2a30.72 30.72 0 0 0 0 42.88 32.64 32.64 0 0 0 19.2 5.76z" p-id="88000" fill="#444444"></path><path d="M869.76 659.84a30.08 30.08 0 0 0-30.08 30.08v132.48a19.84 19.84 0 0 1-19.84 20.48H203.52a19.84 19.84 0 0 1-19.84-20.48v-132.48a30.72 30.72 0 0 0-30.08-30.08 30.72 30.72 0 0 0-30.72 30.08v147.84a64 64 0 0 0 64 64h648.96a64 64 0 0 0 64-64v-147.84a31.36 31.36 0 0 0-30.08-30.08z" p-id="88001" fill="#444444"></path></svg>