<?xml version="1.0" standalone="no"?><!DOCTYPE svg PUBLIC "-//W3C//DTD SVG 1.1//EN" "http://www.w3.org/Graphics/SVG/1.1/DTD/svg11.dtd"><svg t="1576480874473" class="icon" viewBox="0 0 1024 1024" version="1.1" xmlns="http://www.w3.org/2000/svg" p-id="104465" xmlns:xlink="http://www.w3.org/1999/xlink" width="16" height="16"><defs><style type="text/css"></style></defs><path d="M871.93 714H152.07a29 29 0 0 1-29-29V226.65a28 28 0 0 1 28-28h721.86a28 28 0 0 1 28 28V685a29 29 0 0 1-29 29z m-692.86-56h665.86V254.65H179.07z" p-id="104466" fill="#444444"></path><path d="M938.55 254.65H85.45a28 28 0 0 1 0-56h853.1a28 28 0 0 1 0 56zM196.17 956a28 28 0 0 1-21.88-45.45l192.77-242a28 28 0 1 1 43.8 34.89l-192.77 242A28 28 0 0 1 196.17 956zM815.52 956a27.93 27.93 0 0 1-21.91-10.55l-192.77-242a28 28 0 1 1 43.8-34.89l192.77 242A28 28 0 0 1 815.52 956z" p-id="104467" fill="#444444"></path><path d="M676.06 254.65a28 28 0 0 1-28-28v-65.32A37.37 37.37 0 0 0 610.73 124H413.27a37.37 37.37 0 0 0-37.33 37.33v65.32a28 28 0 1 1-56 0v-65.32A93.44 93.44 0 0 1 413.27 68h197.46a93.44 93.44 0 0 1 93.33 93.33v65.32a28 28 0 0 1-28 28z" p-id="104468" fill="#444444"></path></svg>