<?xml version="1.0" standalone="no"?><!DOCTYPE svg PUBLIC "-//W3C//DTD SVG 1.1//EN" "http://www.w3.org/Graphics/SVG/1.1/DTD/svg11.dtd"><svg t="1576482218497" class="icon" viewBox="0 0 1024 1024" version="1.1" xmlns="http://www.w3.org/2000/svg" p-id="127407" xmlns:xlink="http://www.w3.org/1999/xlink" width="16" height="16"><defs><style type="text/css"></style></defs><path d="M567.951313 822.657342c0 30.919197-25.066909 55.982012-55.949266 55.982012l0 0c-30.947849 0-56.014758-25.062815-56.014758-55.982012L455.987289 201.342658c0-30.919197 25.066909-55.982012 56.014758-55.982012l0 0c30.882358 0 55.949266 25.062815 55.949266 55.982012L567.951313 822.657342 567.951313 822.657342zM567.951313 822.657342" p-id="127408" fill="#6699ff"></path><path d="M822.643016 456.022081c30.946826 0 56.009641 25.062815 56.009641 55.977919l0 0c0 30.915104-25.062815 55.977919-56.009641 55.977919L201.300702 567.977919c-30.887474 0-55.954383-25.062815-55.954383-55.977919l0 0c0-30.915104 25.062815-55.977919 55.954383-55.977919L822.643016 456.022081 822.643016 456.022081zM822.643016 456.022081" p-id="127409" fill="#6699ff"></path></svg>